<mxfile host="app.diagrams.net" agent="Mozilla/5.0 (Windows NT 10.0; Win64; x64) AppleWebKit/537.36 (KHTML, like Gecko) Chrome/131.0.0.0 Safari/537.36" version="24.8.9">
  <diagram id="C5RBs43oDa-KdzZeNtuy" name="Page-1">
    <mxGraphModel dx="5711" dy="3965" grid="1" gridSize="10" guides="1" tooltips="1" connect="1" arrows="1" fold="1" page="1" pageScale="1" pageWidth="827" pageHeight="1169" math="0" shadow="0">
      <root>
        <mxCell id="WIyWlLk6GJQsqaUBKTNV-0" />
        <mxCell id="WIyWlLk6GJQsqaUBKTNV-1" parent="WIyWlLk6GJQsqaUBKTNV-0" />
        <mxCell id="bTc6IOV8MmuMx8NYDI5--37" value="" style="rounded=0;whiteSpace=wrap;html=1;" vertex="1" parent="WIyWlLk6GJQsqaUBKTNV-1">
          <mxGeometry x="-680" y="-1130" width="2070" height="2810" as="geometry" />
        </mxCell>
        <mxCell id="bTc6IOV8MmuMx8NYDI5--6" style="edgeStyle=orthogonalEdgeStyle;rounded=0;orthogonalLoop=1;jettySize=auto;html=1;entryX=0;entryY=0.5;entryDx=0;entryDy=0;strokeColor=default;dashed=1;endArrow=none;endFill=0;startArrow=block;startFill=0;" edge="1" parent="WIyWlLk6GJQsqaUBKTNV-1" source="zkfFHV4jXpPFQw0GAbJ--0" target="E663I50cfGpHAdR8Y6O5-12">
          <mxGeometry relative="1" as="geometry">
            <Array as="points">
              <mxPoint x="361" y="-860" />
              <mxPoint x="361" y="-1015" />
            </Array>
          </mxGeometry>
        </mxCell>
        <mxCell id="bTc6IOV8MmuMx8NYDI5--7" style="edgeStyle=orthogonalEdgeStyle;rounded=0;orthogonalLoop=1;jettySize=auto;html=1;entryX=0;entryY=0.5;entryDx=0;entryDy=0;dashed=1;strokeColor=default;curved=0;endArrow=none;endFill=0;flowAnimation=0;startArrow=block;startFill=0;" edge="1" parent="WIyWlLk6GJQsqaUBKTNV-1" source="zkfFHV4jXpPFQw0GAbJ--0" target="E663I50cfGpHAdR8Y6O5-5">
          <mxGeometry relative="1" as="geometry">
            <Array as="points">
              <mxPoint x="361" y="-860" />
              <mxPoint x="361" y="-751" />
            </Array>
          </mxGeometry>
        </mxCell>
        <mxCell id="bTc6IOV8MmuMx8NYDI5--10" value="Use" style="edgeLabel;html=1;align=center;verticalAlign=middle;resizable=0;points=[];" vertex="1" connectable="0" parent="bTc6IOV8MmuMx8NYDI5--7">
          <mxGeometry x="-0.6966" relative="1" as="geometry">
            <mxPoint x="41" as="offset" />
          </mxGeometry>
        </mxCell>
        <mxCell id="zkfFHV4jXpPFQw0GAbJ--0" value="BaseStudent" style="swimlane;fontStyle=2;align=center;verticalAlign=top;childLayout=stackLayout;horizontal=1;startSize=26;horizontalStack=0;resizeParent=1;resizeLast=0;collapsible=1;marginBottom=0;rounded=0;shadow=0;strokeWidth=1;" parent="WIyWlLk6GJQsqaUBKTNV-1" vertex="1">
          <mxGeometry x="-159" y="-1080" width="320" height="440" as="geometry">
            <mxRectangle x="230" y="140" width="160" height="26" as="alternateBounds" />
          </mxGeometry>
        </mxCell>
        <mxCell id="DaK7ERgDfzek0wE4DrNR-5" value="id: string " style="text;align=left;verticalAlign=top;spacingLeft=4;spacingRight=4;overflow=hidden;rotatable=0;points=[[0,0.5],[1,0.5]];portConstraint=eastwest;rounded=0;shadow=0;html=0;" parent="zkfFHV4jXpPFQw0GAbJ--0" vertex="1">
          <mxGeometry y="26" width="320" height="26" as="geometry" />
        </mxCell>
        <mxCell id="DaK7ERgDfzek0wE4DrNR-3" value="git: string&#xa; " style="text;align=left;verticalAlign=top;spacingLeft=4;spacingRight=4;overflow=hidden;rotatable=0;points=[[0,0.5],[1,0.5]];portConstraint=eastwest;rounded=0;shadow=0;html=0;" parent="zkfFHV4jXpPFQw0GAbJ--0" vertex="1">
          <mxGeometry y="52" width="320" height="26" as="geometry" />
        </mxCell>
        <mxCell id="zkfFHV4jXpPFQw0GAbJ--4" value="" style="line;html=1;strokeWidth=1;align=left;verticalAlign=middle;spacingTop=-1;spacingLeft=3;spacingRight=3;rotatable=0;labelPosition=right;points=[];portConstraint=eastwest;" parent="zkfFHV4jXpPFQw0GAbJ--0" vertex="1">
          <mxGeometry y="78" width="320" height="8" as="geometry" />
        </mxCell>
        <mxCell id="DaK7ERgDfzek0wE4DrNR-37" value="#initialize(id: str, git: str)" style="text;align=left;verticalAlign=top;spacingLeft=4;spacingRight=4;overflow=hidden;rotatable=0;points=[[0,0.5],[1,0.5]];portConstraint=eastwest;" parent="zkfFHV4jXpPFQw0GAbJ--0" vertex="1">
          <mxGeometry y="86" width="320" height="26" as="geometry" />
        </mxCell>
        <mxCell id="DaK7ERgDfzek0wE4DrNR-10" value="+id=(value: str) : set" style="text;align=left;verticalAlign=top;spacingLeft=4;spacingRight=4;overflow=hidden;rotatable=0;points=[[0,0.5],[1,0.5]];portConstraint=eastwest;" parent="zkfFHV4jXpPFQw0GAbJ--0" vertex="1">
          <mxGeometry y="112" width="320" height="26" as="geometry" />
        </mxCell>
        <mxCell id="DaK7ERgDfzek0wE4DrNR-35" value="+git=(value: str) : set" style="text;align=left;verticalAlign=top;spacingLeft=4;spacingRight=4;overflow=hidden;rotatable=0;points=[[0,0.5],[1,0.5]];portConstraint=eastwest;" parent="zkfFHV4jXpPFQw0GAbJ--0" vertex="1">
          <mxGeometry y="138" width="320" height="26" as="geometry" />
        </mxCell>
        <mxCell id="DaK7ERgDfzek0wE4DrNR-34" value="+id : get" style="text;align=left;verticalAlign=top;spacingLeft=4;spacingRight=4;overflow=hidden;rotatable=0;points=[[0,0.5],[1,0.5]];portConstraint=eastwest;" parent="zkfFHV4jXpPFQw0GAbJ--0" vertex="1">
          <mxGeometry y="164" width="320" height="26" as="geometry" />
        </mxCell>
        <mxCell id="DaK7ERgDfzek0wE4DrNR-32" value="+git : get" style="text;align=left;verticalAlign=top;spacingLeft=4;spacingRight=4;overflow=hidden;rotatable=0;points=[[0,0.5],[1,0.5]];portConstraint=eastwest;" parent="zkfFHV4jXpPFQw0GAbJ--0" vertex="1">
          <mxGeometry y="190" width="320" height="26" as="geometry" />
        </mxCell>
        <mxCell id="E663I50cfGpHAdR8Y6O5-34" value="+surname_and_initials" style="text;align=left;verticalAlign=top;spacingLeft=4;spacingRight=4;overflow=hidden;rotatable=0;points=[[0,0.5],[1,0.5]];portConstraint=eastwest;" parent="zkfFHV4jXpPFQw0GAbJ--0" vertex="1">
          <mxGeometry y="216" width="320" height="24" as="geometry" />
        </mxCell>
        <mxCell id="DaK7ERgDfzek0wE4DrNR-1" value="#has_git?" style="text;align=left;verticalAlign=top;spacingLeft=4;spacingRight=4;overflow=hidden;rotatable=0;points=[[0,0.5],[1,0.5]];portConstraint=eastwest;" parent="zkfFHV4jXpPFQw0GAbJ--0" vertex="1">
          <mxGeometry y="240" width="320" height="26" as="geometry" />
        </mxCell>
        <mxCell id="zkfFHV4jXpPFQw0GAbJ--5" value="#to_hash" style="text;align=left;verticalAlign=top;spacingLeft=4;spacingRight=4;overflow=hidden;rotatable=0;points=[[0,0.5],[1,0.5]];portConstraint=eastwest;" parent="zkfFHV4jXpPFQw0GAbJ--0" vertex="1">
          <mxGeometry y="266" width="320" height="26" as="geometry" />
        </mxCell>
        <mxCell id="rkT2CLuDJCGZjRkK9kf4-31" value="#to_json" style="text;align=left;verticalAlign=top;spacingLeft=4;spacingRight=4;overflow=hidden;rotatable=0;points=[[0,0.5],[1,0.5]];portConstraint=eastwest;" parent="zkfFHV4jXpPFQw0GAbJ--0" vertex="1">
          <mxGeometry y="292" width="320" height="26" as="geometry" />
        </mxCell>
        <mxCell id="rkT2CLuDJCGZjRkK9kf4-32" value="#get_info" style="text;align=left;verticalAlign=top;spacingLeft=4;spacingRight=4;overflow=hidden;rotatable=0;points=[[0,0.5],[1,0.5]];portConstraint=eastwest;" parent="zkfFHV4jXpPFQw0GAbJ--0" vertex="1">
          <mxGeometry y="318" width="320" height="26" as="geometry" />
        </mxCell>
        <mxCell id="rkT2CLuDJCGZjRkK9kf4-33" value="#to_s" style="text;align=left;verticalAlign=top;spacingLeft=4;spacingRight=4;overflow=hidden;rotatable=0;points=[[0,0.5],[1,0.5]];portConstraint=eastwest;" parent="zkfFHV4jXpPFQw0GAbJ--0" vertex="1">
          <mxGeometry y="344" width="320" height="26" as="geometry" />
        </mxCell>
        <mxCell id="E663I50cfGpHAdR8Y6O5-15" value="+read_from_txt(file_name: str)" style="text;align=left;verticalAlign=top;spacingLeft=4;spacingRight=4;overflow=hidden;rotatable=0;points=[[0,0.5],[1,0.5]];portConstraint=eastwest;fontStyle=4" parent="zkfFHV4jXpPFQw0GAbJ--0" vertex="1">
          <mxGeometry y="370" width="320" height="26" as="geometry" />
        </mxCell>
        <mxCell id="E663I50cfGpHAdR8Y6O5-16" value="+write_to_txt(students: Array, file_name: str)" style="text;align=left;verticalAlign=top;spacingLeft=4;spacingRight=4;overflow=hidden;rotatable=0;points=[[0,0.5],[1,0.5]];portConstraint=eastwest;fontStyle=4" parent="zkfFHV4jXpPFQw0GAbJ--0" vertex="1">
          <mxGeometry y="396" width="320" height="26" as="geometry" />
        </mxCell>
        <mxCell id="zkfFHV4jXpPFQw0GAbJ--6" value="Student" style="swimlane;fontStyle=0;align=center;verticalAlign=top;childLayout=stackLayout;horizontal=1;startSize=26;horizontalStack=0;resizeParent=1;resizeLast=0;collapsible=1;marginBottom=0;rounded=0;shadow=0;strokeWidth=1;" parent="WIyWlLk6GJQsqaUBKTNV-1" vertex="1">
          <mxGeometry x="-559" y="-480" width="520" height="760" as="geometry">
            <mxRectangle x="130" y="380" width="160" height="26" as="alternateBounds" />
          </mxGeometry>
        </mxCell>
        <mxCell id="zkfFHV4jXpPFQw0GAbJ--7" value="name: string" style="text;align=left;verticalAlign=top;spacingLeft=4;spacingRight=4;overflow=hidden;rotatable=0;points=[[0,0.5],[1,0.5]];portConstraint=eastwest;" parent="zkfFHV4jXpPFQw0GAbJ--6" vertex="1">
          <mxGeometry y="26" width="520" height="26" as="geometry" />
        </mxCell>
        <mxCell id="zkfFHV4jXpPFQw0GAbJ--8" value="surname: string" style="text;align=left;verticalAlign=top;spacingLeft=4;spacingRight=4;overflow=hidden;rotatable=0;points=[[0,0.5],[1,0.5]];portConstraint=eastwest;rounded=0;shadow=0;html=0;" parent="zkfFHV4jXpPFQw0GAbJ--6" vertex="1">
          <mxGeometry y="52" width="520" height="26" as="geometry" />
        </mxCell>
        <mxCell id="hA9nvbCW1QsnM-zQuUA5-5" value="patronymic: string" style="text;align=left;verticalAlign=top;spacingLeft=4;spacingRight=4;overflow=hidden;rotatable=0;points=[[0,0.5],[1,0.5]];portConstraint=eastwest;rounded=0;shadow=0;html=0;" parent="zkfFHV4jXpPFQw0GAbJ--6" vertex="1">
          <mxGeometry y="78" width="520" height="26" as="geometry" />
        </mxCell>
        <mxCell id="rkT2CLuDJCGZjRkK9kf4-34" value="phone: string" style="text;align=left;verticalAlign=top;spacingLeft=4;spacingRight=4;overflow=hidden;rotatable=0;points=[[0,0.5],[1,0.5]];portConstraint=eastwest;rounded=0;shadow=0;html=0;" parent="zkfFHV4jXpPFQw0GAbJ--6" vertex="1">
          <mxGeometry y="104" width="520" height="26" as="geometry" />
        </mxCell>
        <mxCell id="rkT2CLuDJCGZjRkK9kf4-35" value="email: string" style="text;align=left;verticalAlign=top;spacingLeft=4;spacingRight=4;overflow=hidden;rotatable=0;points=[[0,0.5],[1,0.5]];portConstraint=eastwest;rounded=0;shadow=0;html=0;" parent="zkfFHV4jXpPFQw0GAbJ--6" vertex="1">
          <mxGeometry y="130" width="520" height="26" as="geometry" />
        </mxCell>
        <mxCell id="rkT2CLuDJCGZjRkK9kf4-36" value="telegram: string" style="text;align=left;verticalAlign=top;spacingLeft=4;spacingRight=4;overflow=hidden;rotatable=0;points=[[0,0.5],[1,0.5]];portConstraint=eastwest;rounded=0;shadow=0;html=0;" parent="zkfFHV4jXpPFQw0GAbJ--6" vertex="1">
          <mxGeometry y="156" width="520" height="26" as="geometry" />
        </mxCell>
        <mxCell id="zkfFHV4jXpPFQw0GAbJ--9" value="" style="line;html=1;strokeWidth=1;align=left;verticalAlign=middle;spacingTop=-1;spacingLeft=3;spacingRight=3;rotatable=0;labelPosition=right;points=[];portConstraint=eastwest;" parent="zkfFHV4jXpPFQw0GAbJ--6" vertex="1">
          <mxGeometry y="182" width="520" height="8" as="geometry" />
        </mxCell>
        <mxCell id="DaK7ERgDfzek0wE4DrNR-44" value="+name=(value: string) : set" style="text;align=left;verticalAlign=top;spacingLeft=4;spacingRight=4;overflow=hidden;rotatable=0;points=[[0,0.5],[1,0.5]];portConstraint=eastwest;" parent="zkfFHV4jXpPFQw0GAbJ--6" vertex="1">
          <mxGeometry y="190" width="520" height="26" as="geometry" />
        </mxCell>
        <mxCell id="DaK7ERgDfzek0wE4DrNR-43" value="+surname=(value: string) : set" style="text;align=left;verticalAlign=top;spacingLeft=4;spacingRight=4;overflow=hidden;rotatable=0;points=[[0,0.5],[1,0.5]];portConstraint=eastwest;" parent="zkfFHV4jXpPFQw0GAbJ--6" vertex="1">
          <mxGeometry y="216" width="520" height="26" as="geometry" />
        </mxCell>
        <mxCell id="DaK7ERgDfzek0wE4DrNR-42" value="+patronymic=(value: string) : set" style="text;align=left;verticalAlign=top;spacingLeft=4;spacingRight=4;overflow=hidden;rotatable=0;points=[[0,0.5],[1,0.5]];portConstraint=eastwest;" parent="zkfFHV4jXpPFQw0GAbJ--6" vertex="1">
          <mxGeometry y="242" width="520" height="26" as="geometry" />
        </mxCell>
        <mxCell id="DaK7ERgDfzek0wE4DrNR-38" value="+name : get" style="text;align=left;verticalAlign=top;spacingLeft=4;spacingRight=4;overflow=hidden;rotatable=0;points=[[0,0.5],[1,0.5]];portConstraint=eastwest;" parent="zkfFHV4jXpPFQw0GAbJ--6" vertex="1">
          <mxGeometry y="268" width="520" height="26" as="geometry" />
        </mxCell>
        <mxCell id="DaK7ERgDfzek0wE4DrNR-46" value="+surname : get" style="text;align=left;verticalAlign=top;spacingLeft=4;spacingRight=4;overflow=hidden;rotatable=0;points=[[0,0.5],[1,0.5]];portConstraint=eastwest;" parent="zkfFHV4jXpPFQw0GAbJ--6" vertex="1">
          <mxGeometry y="294" width="520" height="26" as="geometry" />
        </mxCell>
        <mxCell id="DaK7ERgDfzek0wE4DrNR-45" value="+patronymic : get" style="text;align=left;verticalAlign=top;spacingLeft=4;spacingRight=4;overflow=hidden;rotatable=0;points=[[0,0.5],[1,0.5]];portConstraint=eastwest;" parent="zkfFHV4jXpPFQw0GAbJ--6" vertex="1">
          <mxGeometry y="320" width="520" height="26" as="geometry" />
        </mxCell>
        <mxCell id="DaK7ERgDfzek0wE4DrNR-40" value="-tg=(value: string) :  set" style="text;align=left;verticalAlign=top;spacingLeft=4;spacingRight=4;overflow=hidden;rotatable=0;points=[[0,0.5],[1,0.5]];portConstraint=eastwest;" parent="zkfFHV4jXpPFQw0GAbJ--6" vertex="1">
          <mxGeometry y="346" width="520" height="26" as="geometry" />
        </mxCell>
        <mxCell id="DaK7ERgDfzek0wE4DrNR-41" value="-phone=(value:string) : set" style="text;align=left;verticalAlign=top;spacingLeft=4;spacingRight=4;overflow=hidden;rotatable=0;points=[[0,0.5],[1,0.5]];portConstraint=eastwest;" parent="zkfFHV4jXpPFQw0GAbJ--6" vertex="1">
          <mxGeometry y="372" width="520" height="26" as="geometry" />
        </mxCell>
        <mxCell id="DaK7ERgDfzek0wE4DrNR-39" value="-email=(value: str) : set" style="text;align=left;verticalAlign=top;spacingLeft=4;spacingRight=4;overflow=hidden;rotatable=0;points=[[0,0.5],[1,0.5]];portConstraint=eastwest;" parent="zkfFHV4jXpPFQw0GAbJ--6" vertex="1">
          <mxGeometry y="398" width="520" height="26" as="geometry" />
        </mxCell>
        <mxCell id="zkfFHV4jXpPFQw0GAbJ--11" value="+initialize(surname: str, name: str, patronymic: str, id: str, phone: str, tg: str, email: sttr, git: str)" style="text;align=left;verticalAlign=top;spacingLeft=4;spacingRight=4;overflow=hidden;rotatable=0;points=[[0,0.5],[1,0.5]];portConstraint=eastwest;" parent="zkfFHV4jXpPFQw0GAbJ--6" vertex="1">
          <mxGeometry y="424" width="520" height="26" as="geometry" />
        </mxCell>
        <mxCell id="rkT2CLuDJCGZjRkK9kf4-37" value="&amp;nbsp;&lt;u&gt;+from_json(json)&lt;/u&gt;" style="text;html=1;align=left;verticalAlign=middle;whiteSpace=wrap;rounded=0;" parent="zkfFHV4jXpPFQw0GAbJ--6" vertex="1">
          <mxGeometry y="450" width="520" height="30" as="geometry" />
        </mxCell>
        <mxCell id="hA9nvbCW1QsnM-zQuUA5-15" value="-has_any_contact?" style="text;align=left;verticalAlign=top;spacingLeft=4;spacingRight=4;overflow=hidden;rotatable=0;points=[[0,0.5],[1,0.5]];portConstraint=eastwest;fontStyle=0" parent="zkfFHV4jXpPFQw0GAbJ--6" vertex="1">
          <mxGeometry y="480" width="520" height="26" as="geometry" />
        </mxCell>
        <mxCell id="DaK7ERgDfzek0wE4DrNR-47" value="+has_git_and_any_contact?" style="text;align=left;verticalAlign=top;spacingLeft=4;spacingRight=4;overflow=hidden;rotatable=0;points=[[0,0.5],[1,0.5]];portConstraint=eastwest;fontStyle=0" parent="zkfFHV4jXpPFQw0GAbJ--6" vertex="1">
          <mxGeometry y="506" width="520" height="26" as="geometry" />
        </mxCell>
        <mxCell id="f9_wmxC5XZ2sHoWMa0am-0" value="&amp;nbsp;+get_contacts" style="text;html=1;align=left;verticalAlign=middle;whiteSpace=wrap;rounded=0;" parent="zkfFHV4jXpPFQw0GAbJ--6" vertex="1">
          <mxGeometry y="532" width="520" height="30" as="geometry" />
        </mxCell>
        <mxCell id="rkT2CLuDJCGZjRkK9kf4-38" value="&amp;nbsp;+set_contacts(phone: str, telegram:str, email:str)" style="text;html=1;align=left;verticalAlign=middle;whiteSpace=wrap;rounded=0;" parent="zkfFHV4jXpPFQw0GAbJ--6" vertex="1">
          <mxGeometry y="562" width="520" height="30" as="geometry" />
        </mxCell>
        <mxCell id="rkT2CLuDJCGZjRkK9kf4-40" value="-to_short_hash" style="text;align=left;verticalAlign=top;spacingLeft=4;spacingRight=4;overflow=hidden;rotatable=0;points=[[0,0.5],[1,0.5]];portConstraint=eastwest;fontStyle=0" parent="zkfFHV4jXpPFQw0GAbJ--6" vertex="1">
          <mxGeometry y="592" width="520" height="26" as="geometry" />
        </mxCell>
        <mxCell id="DaK7ERgDfzek0wE4DrNR-49" value="+get_info" style="text;align=left;verticalAlign=top;spacingLeft=4;spacingRight=4;overflow=hidden;rotatable=0;points=[[0,0.5],[1,0.5]];portConstraint=eastwest;fontStyle=0" parent="zkfFHV4jXpPFQw0GAbJ--6" vertex="1">
          <mxGeometry y="618" width="520" height="26" as="geometry" />
        </mxCell>
        <mxCell id="hA9nvbCW1QsnM-zQuUA5-7" value="+to_s" style="text;align=left;verticalAlign=top;spacingLeft=4;spacingRight=4;overflow=hidden;rotatable=0;points=[[0,0.5],[1,0.5]];portConstraint=eastwest;" parent="zkfFHV4jXpPFQw0GAbJ--6" vertex="1">
          <mxGeometry y="644" width="520" height="26" as="geometry" />
        </mxCell>
        <mxCell id="rkT2CLuDJCGZjRkK9kf4-41" value="+to_hash" style="text;align=left;verticalAlign=top;spacingLeft=4;spacingRight=4;overflow=hidden;rotatable=0;points=[[0,0.5],[1,0.5]];portConstraint=eastwest;" parent="zkfFHV4jXpPFQw0GAbJ--6" vertex="1">
          <mxGeometry y="670" width="520" height="26" as="geometry" />
        </mxCell>
        <mxCell id="rkT2CLuDJCGZjRkK9kf4-42" value="+to_json" style="text;align=left;verticalAlign=top;spacingLeft=4;spacingRight=4;overflow=hidden;rotatable=0;points=[[0,0.5],[1,0.5]];portConstraint=eastwest;" parent="zkfFHV4jXpPFQw0GAbJ--6" vertex="1">
          <mxGeometry y="696" width="520" height="26" as="geometry" />
        </mxCell>
        <mxCell id="zkfFHV4jXpPFQw0GAbJ--12" value="" style="endArrow=block;endSize=10;endFill=0;shadow=0;strokeWidth=1;rounded=0;edgeStyle=elbowEdgeStyle;elbow=vertical;" parent="WIyWlLk6GJQsqaUBKTNV-1" source="zkfFHV4jXpPFQw0GAbJ--6" target="zkfFHV4jXpPFQw0GAbJ--0" edge="1">
          <mxGeometry width="160" relative="1" as="geometry">
            <mxPoint x="-93" y="-567" as="sourcePoint" />
            <mxPoint x="-93" y="-567" as="targetPoint" />
          </mxGeometry>
        </mxCell>
        <mxCell id="zkfFHV4jXpPFQw0GAbJ--16" value="" style="endArrow=block;endSize=10;endFill=0;shadow=0;strokeWidth=1;rounded=0;edgeStyle=elbowEdgeStyle;elbow=vertical;exitX=0.5;exitY=0;exitDx=0;exitDy=0;" parent="WIyWlLk6GJQsqaUBKTNV-1" source="zkfFHV4jXpPFQw0GAbJ--17" target="zkfFHV4jXpPFQw0GAbJ--0" edge="1">
          <mxGeometry width="160" relative="1" as="geometry">
            <mxPoint x="117" y="-410" as="sourcePoint" />
            <mxPoint x="17" y="-499" as="targetPoint" />
          </mxGeometry>
        </mxCell>
        <mxCell id="rkT2CLuDJCGZjRkK9kf4-0" value="&lt;&lt;module&gt;&gt; StudentValidator" style="swimlane;fontStyle=2;align=center;verticalAlign=top;childLayout=stackLayout;horizontal=1;startSize=26;horizontalStack=0;resizeParent=1;resizeLast=0;collapsible=1;marginBottom=0;rounded=0;shadow=0;strokeWidth=1;" parent="WIyWlLk6GJQsqaUBKTNV-1" vertex="1">
          <mxGeometry x="521" y="-1080" width="400" height="120" as="geometry">
            <mxRectangle x="230" y="140" width="160" height="26" as="alternateBounds" />
          </mxGeometry>
        </mxCell>
        <mxCell id="rkT2CLuDJCGZjRkK9kf4-27" value="+valid_attr_accessor(attr_names: array)" style="text;align=left;verticalAlign=top;spacingLeft=4;spacingRight=4;overflow=hidden;rotatable=0;points=[[0,0.5],[1,0.5]];portConstraint=eastwest;fontStyle=0" parent="rkT2CLuDJCGZjRkK9kf4-0" vertex="1">
          <mxGeometry y="26" width="400" height="26" as="geometry" />
        </mxCell>
        <mxCell id="E663I50cfGpHAdR8Y6O5-12" value="+valid_attr_writer(attr_names: array)" style="text;align=left;verticalAlign=top;spacingLeft=4;spacingRight=4;overflow=hidden;rotatable=0;points=[[0,0.5],[1,0.5]];portConstraint=eastwest;fontStyle=0" parent="rkT2CLuDJCGZjRkK9kf4-0" vertex="1">
          <mxGeometry y="52" width="400" height="26" as="geometry" />
        </mxCell>
        <mxCell id="E663I50cfGpHAdR8Y6O5-13" value="+valid_methods(method_names: array)" style="text;align=left;verticalAlign=top;spacingLeft=4;spacingRight=4;overflow=hidden;rotatable=0;points=[[0,0.5],[1,0.5]];portConstraint=eastwest;fontStyle=0" parent="rkT2CLuDJCGZjRkK9kf4-0" vertex="1">
          <mxGeometry y="78" width="400" height="26" as="geometry" />
        </mxCell>
        <mxCell id="E663I50cfGpHAdR8Y6O5-0" value="&lt;&lt;module&gt;&gt; StudentValidatorHelper" style="swimlane;fontStyle=2;align=center;verticalAlign=top;childLayout=stackLayout;horizontal=1;startSize=26;horizontalStack=0;resizeParent=1;resizeLast=0;collapsible=1;marginBottom=0;rounded=0;shadow=0;strokeWidth=1;" parent="WIyWlLk6GJQsqaUBKTNV-1" vertex="1">
          <mxGeometry x="521" y="-920" width="400" height="360" as="geometry">
            <mxRectangle x="230" y="140" width="160" height="26" as="alternateBounds" />
          </mxGeometry>
        </mxCell>
        <mxCell id="E663I50cfGpHAdR8Y6O5-1" value="#validate_attributes?(kwargs: hash, validations: hash)" style="text;align=left;verticalAlign=top;spacingLeft=4;spacingRight=4;overflow=hidden;rotatable=0;points=[[0,0.5],[1,0.5]];portConstraint=eastwest;fontStyle=0" parent="E663I50cfGpHAdR8Y6O5-0" vertex="1">
          <mxGeometry y="26" width="400" height="26" as="geometry" />
        </mxCell>
        <mxCell id="E663I50cfGpHAdR8Y6O5-2" value="+valid_arg?(arg_name: str, arg_value: any)" style="text;align=left;verticalAlign=top;spacingLeft=4;spacingRight=4;overflow=hidden;rotatable=0;points=[[0,0.5],[1,0.5]];portConstraint=eastwest;fontStyle=4" parent="E663I50cfGpHAdR8Y6O5-0" vertex="1">
          <mxGeometry y="52" width="400" height="26" as="geometry" />
        </mxCell>
        <mxCell id="E663I50cfGpHAdR8Y6O5-14" value="+valid_full_name?(full_name: str)" style="text;align=left;verticalAlign=top;spacingLeft=4;spacingRight=4;overflow=hidden;rotatable=0;points=[[0,0.5],[1,0.5]];portConstraint=eastwest;fontStyle=4" parent="E663I50cfGpHAdR8Y6O5-0" vertex="1">
          <mxGeometry y="78" width="400" height="26" as="geometry" />
        </mxCell>
        <mxCell id="E663I50cfGpHAdR8Y6O5-3" value="+valid_name?(name: str)" style="text;align=left;verticalAlign=top;spacingLeft=4;spacingRight=4;overflow=hidden;rotatable=0;points=[[0,0.5],[1,0.5]];portConstraint=eastwest;fontStyle=4" parent="E663I50cfGpHAdR8Y6O5-0" vertex="1">
          <mxGeometry y="104" width="400" height="26" as="geometry" />
        </mxCell>
        <mxCell id="E663I50cfGpHAdR8Y6O5-4" value="+valid_surname?(surname: str)" style="text;align=left;verticalAlign=top;spacingLeft=4;spacingRight=4;overflow=hidden;rotatable=0;points=[[0,0.5],[1,0.5]];portConstraint=eastwest;fontStyle=4" parent="E663I50cfGpHAdR8Y6O5-0" vertex="1">
          <mxGeometry y="130" width="400" height="26" as="geometry" />
        </mxCell>
        <mxCell id="E663I50cfGpHAdR8Y6O5-5" value="+valid_patronymic?(patronymic: str)" style="text;align=left;verticalAlign=top;spacingLeft=4;spacingRight=4;overflow=hidden;rotatable=0;points=[[0,0.5],[1,0.5]];portConstraint=eastwest;fontStyle=4" parent="E663I50cfGpHAdR8Y6O5-0" vertex="1">
          <mxGeometry y="156" width="400" height="26" as="geometry" />
        </mxCell>
        <mxCell id="E663I50cfGpHAdR8Y6O5-6" value="+valid_surname_and_initials?(surname_and_initials: str)" style="text;align=left;verticalAlign=top;spacingLeft=4;spacingRight=4;overflow=hidden;rotatable=0;points=[[0,0.5],[1,0.5]];portConstraint=eastwest;fontStyle=4" parent="E663I50cfGpHAdR8Y6O5-0" vertex="1">
          <mxGeometry y="182" width="400" height="26" as="geometry" />
        </mxCell>
        <mxCell id="E663I50cfGpHAdR8Y6O5-7" value="+valid_git?(git: str)" style="text;align=left;verticalAlign=top;spacingLeft=4;spacingRight=4;overflow=hidden;rotatable=0;points=[[0,0.5],[1,0.5]];portConstraint=eastwest;fontStyle=4" parent="E663I50cfGpHAdR8Y6O5-0" vertex="1">
          <mxGeometry y="208" width="400" height="26" as="geometry" />
        </mxCell>
        <mxCell id="E663I50cfGpHAdR8Y6O5-8" value="+valid_phone?(phone: str)" style="text;align=left;verticalAlign=top;spacingLeft=4;spacingRight=4;overflow=hidden;rotatable=0;points=[[0,0.5],[1,0.5]];portConstraint=eastwest;fontStyle=4" parent="E663I50cfGpHAdR8Y6O5-0" vertex="1">
          <mxGeometry y="234" width="400" height="26" as="geometry" />
        </mxCell>
        <mxCell id="E663I50cfGpHAdR8Y6O5-9" value="+valid_email?(email: str)" style="text;align=left;verticalAlign=top;spacingLeft=4;spacingRight=4;overflow=hidden;rotatable=0;points=[[0,0.5],[1,0.5]];portConstraint=eastwest;fontStyle=4" parent="E663I50cfGpHAdR8Y6O5-0" vertex="1">
          <mxGeometry y="260" width="400" height="26" as="geometry" />
        </mxCell>
        <mxCell id="E663I50cfGpHAdR8Y6O5-10" value="+valid_telegram?(telegram: str)" style="text;align=left;verticalAlign=top;spacingLeft=4;spacingRight=4;overflow=hidden;rotatable=0;points=[[0,0.5],[1,0.5]];portConstraint=eastwest;fontStyle=4" parent="E663I50cfGpHAdR8Y6O5-0" vertex="1">
          <mxGeometry y="286" width="400" height="26" as="geometry" />
        </mxCell>
        <mxCell id="E663I50cfGpHAdR8Y6O5-11" value="+valid_contact?(contact: Hash)" style="text;align=left;verticalAlign=top;spacingLeft=4;spacingRight=4;overflow=hidden;rotatable=0;points=[[0,0.5],[1,0.5]];portConstraint=eastwest;fontStyle=4" parent="E663I50cfGpHAdR8Y6O5-0" vertex="1">
          <mxGeometry y="312" width="400" height="26" as="geometry" />
        </mxCell>
        <mxCell id="znhiIEnqB92v2dkdMsuW-0" value="data_table" style="swimlane;fontStyle=2;align=center;verticalAlign=top;childLayout=stackLayout;horizontal=1;startSize=26;horizontalStack=0;resizeParent=1;resizeLast=0;collapsible=1;marginBottom=0;rounded=0;shadow=0;strokeWidth=1;" parent="WIyWlLk6GJQsqaUBKTNV-1" vertex="1">
          <mxGeometry x="1000" y="40" width="319" height="150" as="geometry">
            <mxRectangle x="230" y="140" width="160" height="26" as="alternateBounds" />
          </mxGeometry>
        </mxCell>
        <mxCell id="znhiIEnqB92v2dkdMsuW-1" value="+initialize(data: matrix)" style="text;align=left;verticalAlign=top;spacingLeft=4;spacingRight=4;overflow=hidden;rotatable=0;points=[[0,0.5],[1,0.5]];portConstraint=eastwest;fontStyle=0" parent="znhiIEnqB92v2dkdMsuW-0" vertex="1">
          <mxGeometry y="26" width="319" height="26" as="geometry" />
        </mxCell>
        <mxCell id="znhiIEnqB92v2dkdMsuW-2" value="+get_element(row,col)" style="text;align=left;verticalAlign=top;spacingLeft=4;spacingRight=4;overflow=hidden;rotatable=0;points=[[0,0.5],[1,0.5]];portConstraint=eastwest;fontStyle=0" parent="znhiIEnqB92v2dkdMsuW-0" vertex="1">
          <mxGeometry y="52" width="319" height="26" as="geometry" />
        </mxCell>
        <mxCell id="znhiIEnqB92v2dkdMsuW-13" value="+row_count&#xa;" style="text;align=left;verticalAlign=top;spacingLeft=4;spacingRight=4;overflow=hidden;rotatable=0;points=[[0,0.5],[1,0.5]];portConstraint=eastwest;fontStyle=0" parent="znhiIEnqB92v2dkdMsuW-0" vertex="1">
          <mxGeometry y="78" width="319" height="26" as="geometry" />
        </mxCell>
        <mxCell id="znhiIEnqB92v2dkdMsuW-3" value="+column_count&#xa;" style="text;align=left;verticalAlign=top;spacingLeft=4;spacingRight=4;overflow=hidden;rotatable=0;points=[[0,0.5],[1,0.5]];portConstraint=eastwest;fontStyle=0" parent="znhiIEnqB92v2dkdMsuW-0" vertex="1">
          <mxGeometry y="104" width="319" height="26" as="geometry" />
        </mxCell>
        <mxCell id="znhiIEnqB92v2dkdMsuW-41" style="edgeStyle=orthogonalEdgeStyle;rounded=0;orthogonalLoop=1;jettySize=auto;html=1;entryX=0.5;entryY=0;entryDx=0;entryDy=0;endArrow=none;endFill=0;startArrow=classic;startFill=1;" parent="WIyWlLk6GJQsqaUBKTNV-1" source="znhiIEnqB92v2dkdMsuW-5" target="znhiIEnqB92v2dkdMsuW-31" edge="1">
          <mxGeometry relative="1" as="geometry">
            <Array as="points">
              <mxPoint x="601" />
              <mxPoint x="321" />
              <mxPoint x="321" y="40" />
            </Array>
          </mxGeometry>
        </mxCell>
        <mxCell id="znhiIEnqB92v2dkdMsuW-5" value="data_list" style="swimlane;fontStyle=2;align=center;verticalAlign=top;childLayout=stackLayout;horizontal=1;startSize=26;horizontalStack=0;resizeParent=1;resizeLast=0;collapsible=1;marginBottom=0;rounded=0;shadow=0;strokeWidth=1;" parent="WIyWlLk6GJQsqaUBKTNV-1" vertex="1">
          <mxGeometry x="521" y="-480" width="400" height="400" as="geometry">
            <mxRectangle x="230" y="140" width="160" height="26" as="alternateBounds" />
          </mxGeometry>
        </mxCell>
        <mxCell id="znhiIEnqB92v2dkdMsuW-6" value="+initialize(data: array)" style="text;align=left;verticalAlign=top;spacingLeft=4;spacingRight=4;overflow=hidden;rotatable=0;points=[[0,0.5],[1,0.5]];portConstraint=eastwest;fontStyle=0" parent="znhiIEnqB92v2dkdMsuW-5" vertex="1">
          <mxGeometry y="26" width="400" height="26" as="geometry" />
        </mxCell>
        <mxCell id="znhiIEnqB92v2dkdMsuW-15" value="+elements=" style="text;align=left;verticalAlign=top;spacingLeft=4;spacingRight=4;overflow=hidden;rotatable=0;points=[[0,0.5],[1,0.5]];portConstraint=eastwest;fontStyle=0" parent="znhiIEnqB92v2dkdMsuW-5" vertex="1">
          <mxGeometry y="52" width="400" height="26" as="geometry" />
        </mxCell>
        <mxCell id="znhiIEnqB92v2dkdMsuW-14" value="+elements" style="text;align=left;verticalAlign=top;spacingLeft=4;spacingRight=4;overflow=hidden;rotatable=0;points=[[0,0.5],[1,0.5]];portConstraint=eastwest;fontStyle=0" parent="znhiIEnqB92v2dkdMsuW-5" vertex="1">
          <mxGeometry y="78" width="400" height="26" as="geometry" />
        </mxCell>
        <mxCell id="znhiIEnqB92v2dkdMsuW-7" value="+select(number)" style="text;align=left;verticalAlign=top;spacingLeft=4;spacingRight=4;overflow=hidden;rotatable=0;points=[[0,0.5],[1,0.5]];portConstraint=eastwest;fontStyle=0" parent="znhiIEnqB92v2dkdMsuW-5" vertex="1">
          <mxGeometry y="104" width="400" height="26" as="geometry" />
        </mxCell>
        <mxCell id="znhiIEnqB92v2dkdMsuW-16" value="+selected" style="text;align=left;verticalAlign=top;spacingLeft=4;spacingRight=4;overflow=hidden;rotatable=0;points=[[0,0.5],[1,0.5]];portConstraint=eastwest;fontStyle=0" parent="znhiIEnqB92v2dkdMsuW-5" vertex="1">
          <mxGeometry y="130" width="400" height="26" as="geometry" />
        </mxCell>
        <mxCell id="znhiIEnqB92v2dkdMsuW-8" value="+clear_selected" style="text;align=left;verticalAlign=top;spacingLeft=4;spacingRight=4;overflow=hidden;rotatable=0;points=[[0,0.5],[1,0.5]];portConstraint=eastwest;fontStyle=0" parent="znhiIEnqB92v2dkdMsuW-5" vertex="1">
          <mxGeometry y="156" width="400" height="26" as="geometry" />
        </mxCell>
        <mxCell id="znhiIEnqB92v2dkdMsuW-18" value="+get_names" style="text;align=left;verticalAlign=top;spacingLeft=4;spacingRight=4;overflow=hidden;rotatable=0;points=[[0,0.5],[1,0.5]];portConstraint=eastwest;fontStyle=0" parent="znhiIEnqB92v2dkdMsuW-5" vertex="1">
          <mxGeometry y="182" width="400" height="26" as="geometry" />
        </mxCell>
        <mxCell id="znhiIEnqB92v2dkdMsuW-19" value="+get_data" style="text;align=left;verticalAlign=top;spacingLeft=4;spacingRight=4;overflow=hidden;rotatable=0;points=[[0,0.5],[1,0.5]];portConstraint=eastwest;fontStyle=0" parent="znhiIEnqB92v2dkdMsuW-5" vertex="1">
          <mxGeometry y="208" width="400" height="26" as="geometry" />
        </mxCell>
        <mxCell id="znhiIEnqB92v2dkdMsuW-17" value="#data_row" style="text;align=left;verticalAlign=top;spacingLeft=4;spacingRight=4;overflow=hidden;rotatable=0;points=[[0,0.5],[1,0.5]];portConstraint=eastwest;fontStyle=0" parent="znhiIEnqB92v2dkdMsuW-5" vertex="1">
          <mxGeometry y="234" width="400" height="26" as="geometry" />
        </mxCell>
        <mxCell id="bTc6IOV8MmuMx8NYDI5--15" style="edgeStyle=orthogonalEdgeStyle;rounded=0;orthogonalLoop=1;jettySize=auto;html=1;dashed=1;endArrow=block;endFill=0;" edge="1" parent="WIyWlLk6GJQsqaUBKTNV-1" source="znhiIEnqB92v2dkdMsuW-20">
          <mxGeometry relative="1" as="geometry">
            <mxPoint x="761" y="-80" as="targetPoint" />
            <Array as="points">
              <mxPoint x="761" y="10" />
              <mxPoint x="761" y="10" />
            </Array>
          </mxGeometry>
        </mxCell>
        <mxCell id="bTc6IOV8MmuMx8NYDI5--19" value="Use" style="edgeLabel;html=1;align=center;verticalAlign=middle;resizable=0;points=[];" vertex="1" connectable="0" parent="bTc6IOV8MmuMx8NYDI5--15">
          <mxGeometry x="0.1075" relative="1" as="geometry">
            <mxPoint y="12" as="offset" />
          </mxGeometry>
        </mxCell>
        <mxCell id="znhiIEnqB92v2dkdMsuW-20" value="&lt;&lt;module&gt;&gt; deep_dup" style="swimlane;fontStyle=2;align=center;verticalAlign=top;childLayout=stackLayout;horizontal=1;startSize=26;horizontalStack=0;resizeParent=1;resizeLast=0;collapsible=1;marginBottom=0;rounded=0;shadow=0;strokeWidth=1;" parent="WIyWlLk6GJQsqaUBKTNV-1" vertex="1">
          <mxGeometry x="521" y="40" width="400" height="80" as="geometry">
            <mxRectangle x="230" y="140" width="160" height="26" as="alternateBounds" />
          </mxGeometry>
        </mxCell>
        <mxCell id="znhiIEnqB92v2dkdMsuW-21" value="+deep_dup(value: any)" style="text;align=left;verticalAlign=top;spacingLeft=4;spacingRight=4;overflow=hidden;rotatable=0;points=[[0,0.5],[1,0.5]];portConstraint=eastwest;fontStyle=0" parent="znhiIEnqB92v2dkdMsuW-20" vertex="1">
          <mxGeometry y="26" width="400" height="26" as="geometry" />
        </mxCell>
        <mxCell id="znhiIEnqB92v2dkdMsuW-30" value="+deep_dup_custom_object(value: any)" style="text;align=left;verticalAlign=top;spacingLeft=4;spacingRight=4;overflow=hidden;rotatable=0;points=[[0,0.5],[1,0.5]];portConstraint=eastwest;fontStyle=0" parent="znhiIEnqB92v2dkdMsuW-20" vertex="1">
          <mxGeometry y="52" width="400" height="26" as="geometry" />
        </mxCell>
        <mxCell id="bTc6IOV8MmuMx8NYDI5--8" style="edgeStyle=orthogonalEdgeStyle;rounded=0;orthogonalLoop=1;jettySize=auto;html=1;entryX=0.5;entryY=1;entryDx=0;entryDy=0;dashed=1;endArrow=open;endFill=0;" edge="1" parent="WIyWlLk6GJQsqaUBKTNV-1" source="znhiIEnqB92v2dkdMsuW-31" target="zkfFHV4jXpPFQw0GAbJ--17">
          <mxGeometry relative="1" as="geometry" />
        </mxCell>
        <mxCell id="bTc6IOV8MmuMx8NYDI5--9" value="Use" style="edgeLabel;html=1;align=center;verticalAlign=middle;resizable=0;points=[];" vertex="1" connectable="0" parent="bTc6IOV8MmuMx8NYDI5--8">
          <mxGeometry x="0.1333" y="4" relative="1" as="geometry">
            <mxPoint x="4" y="7" as="offset" />
          </mxGeometry>
        </mxCell>
        <mxCell id="znhiIEnqB92v2dkdMsuW-31" value="data_list_student_short" style="swimlane;fontStyle=2;align=center;verticalAlign=top;childLayout=stackLayout;horizontal=1;startSize=26;horizontalStack=0;resizeParent=1;resizeLast=0;collapsible=1;marginBottom=0;rounded=0;shadow=0;strokeWidth=1;" parent="WIyWlLk6GJQsqaUBKTNV-1" vertex="1">
          <mxGeometry x="41" y="40" width="400" height="80" as="geometry">
            <mxRectangle x="230" y="140" width="160" height="26" as="alternateBounds" />
          </mxGeometry>
        </mxCell>
        <mxCell id="znhiIEnqB92v2dkdMsuW-38" value="+get_names" style="text;align=left;verticalAlign=top;spacingLeft=4;spacingRight=4;overflow=hidden;rotatable=0;points=[[0,0.5],[1,0.5]];portConstraint=eastwest;fontStyle=0" parent="znhiIEnqB92v2dkdMsuW-31" vertex="1">
          <mxGeometry y="26" width="400" height="26" as="geometry" />
        </mxCell>
        <mxCell id="znhiIEnqB92v2dkdMsuW-40" value="-data_row" style="text;align=left;verticalAlign=top;spacingLeft=4;spacingRight=4;overflow=hidden;rotatable=0;points=[[0,0.5],[1,0.5]];portConstraint=eastwest;fontStyle=0" parent="znhiIEnqB92v2dkdMsuW-31" vertex="1">
          <mxGeometry y="52" width="400" height="26" as="geometry" />
        </mxCell>
        <mxCell id="bTc6IOV8MmuMx8NYDI5--12" style="edgeStyle=orthogonalEdgeStyle;rounded=0;orthogonalLoop=1;jettySize=auto;html=1;entryX=0.5;entryY=1;entryDx=0;entryDy=0;dashed=1;endArrow=open;endFill=0;" edge="1" parent="WIyWlLk6GJQsqaUBKTNV-1" source="znhiIEnqB92v2dkdMsuW-42" target="znhiIEnqB92v2dkdMsuW-31">
          <mxGeometry relative="1" as="geometry" />
        </mxCell>
        <mxCell id="bTc6IOV8MmuMx8NYDI5--13" value="Use" style="edgeLabel;html=1;align=center;verticalAlign=middle;resizable=0;points=[];" vertex="1" connectable="0" parent="bTc6IOV8MmuMx8NYDI5--12">
          <mxGeometry x="-0.0061" y="-2" relative="1" as="geometry">
            <mxPoint as="offset" />
          </mxGeometry>
        </mxCell>
        <mxCell id="znhiIEnqB92v2dkdMsuW-42" value="student_list" style="swimlane;fontStyle=2;align=center;verticalAlign=top;childLayout=stackLayout;horizontal=1;startSize=26;horizontalStack=0;resizeParent=1;resizeLast=0;collapsible=1;marginBottom=0;rounded=0;shadow=0;strokeWidth=1;" parent="WIyWlLk6GJQsqaUBKTNV-1" vertex="1">
          <mxGeometry x="41" y="200" width="400" height="240" as="geometry">
            <mxRectangle x="230" y="140" width="160" height="26" as="alternateBounds" />
          </mxGeometry>
        </mxCell>
        <mxCell id="znhiIEnqB92v2dkdMsuW-43" value="+initialize(storage: StorageInterface)" style="text;align=left;verticalAlign=top;spacingLeft=4;spacingRight=4;overflow=hidden;rotatable=0;points=[[0,0.5],[1,0.5]];portConstraint=eastwest;fontStyle=0" parent="znhiIEnqB92v2dkdMsuW-42" vertex="1">
          <mxGeometry y="26" width="400" height="26" as="geometry" />
        </mxCell>
        <mxCell id="znhiIEnqB92v2dkdMsuW-44" value="+get_k_n_list(k: int,n: int ,data_list: DataList, filter: BaseFilter)" style="text;align=left;verticalAlign=top;spacingLeft=4;spacingRight=4;overflow=hidden;rotatable=0;points=[[0,0.5],[1,0.5]];portConstraint=eastwest;fontStyle=0" parent="znhiIEnqB92v2dkdMsuW-42" vertex="1">
          <mxGeometry y="52" width="400" height="26" as="geometry" />
        </mxCell>
        <mxCell id="znhiIEnqB92v2dkdMsuW-45" value="+get_by_id(id: int)" style="text;align=left;verticalAlign=top;spacingLeft=4;spacingRight=4;overflow=hidden;rotatable=0;points=[[0,0.5],[1,0.5]];portConstraint=eastwest;fontStyle=0" parent="znhiIEnqB92v2dkdMsuW-42" vertex="1">
          <mxGeometry y="78" width="400" height="26" as="geometry" />
        </mxCell>
        <mxCell id="znhiIEnqB92v2dkdMsuW-49" value="+delete_by_id(id: int)" style="text;align=left;verticalAlign=top;spacingLeft=4;spacingRight=4;overflow=hidden;rotatable=0;points=[[0,0.5],[1,0.5]];portConstraint=eastwest;fontStyle=0" parent="znhiIEnqB92v2dkdMsuW-42" vertex="1">
          <mxGeometry y="104" width="400" height="26" as="geometry" />
        </mxCell>
        <mxCell id="znhiIEnqB92v2dkdMsuW-50" value="+update_by_id(id: int, student: StudentShort)" style="text;align=left;verticalAlign=top;spacingLeft=4;spacingRight=4;overflow=hidden;rotatable=0;points=[[0,0.5],[1,0.5]];portConstraint=eastwest;fontStyle=0" parent="znhiIEnqB92v2dkdMsuW-42" vertex="1">
          <mxGeometry y="130" width="400" height="26" as="geometry" />
        </mxCell>
        <mxCell id="znhiIEnqB92v2dkdMsuW-51" value="+get_student_count(filter: BaseFilter)" style="text;align=left;verticalAlign=top;spacingLeft=4;spacingRight=4;overflow=hidden;rotatable=0;points=[[0,0.5],[1,0.5]];portConstraint=eastwest;fontStyle=0" parent="znhiIEnqB92v2dkdMsuW-42" vertex="1">
          <mxGeometry y="156" width="400" height="26" as="geometry" />
        </mxCell>
        <mxCell id="znhiIEnqB92v2dkdMsuW-52" value="+add(student: StudentShort)" style="text;align=left;verticalAlign=top;spacingLeft=4;spacingRight=4;overflow=hidden;rotatable=0;points=[[0,0.5],[1,0.5]];portConstraint=eastwest;fontStyle=0" parent="znhiIEnqB92v2dkdMsuW-42" vertex="1">
          <mxGeometry y="182" width="400" height="26" as="geometry" />
        </mxCell>
        <mxCell id="bTc6IOV8MmuMx8NYDI5--26" style="edgeStyle=orthogonalEdgeStyle;rounded=0;orthogonalLoop=1;jettySize=auto;html=1;endArrow=diamond;endFill=0;endSize=19;entryX=1.003;entryY=0.636;entryDx=0;entryDy=0;entryPerimeter=0;" edge="1" parent="WIyWlLk6GJQsqaUBKTNV-1" source="znhiIEnqB92v2dkdMsuW-53" target="znhiIEnqB92v2dkdMsuW-49">
          <mxGeometry relative="1" as="geometry">
            <mxPoint x="461" y="320" as="targetPoint" />
          </mxGeometry>
        </mxCell>
        <mxCell id="znhiIEnqB92v2dkdMsuW-53" value="storage_interface" style="swimlane;fontStyle=2;align=center;verticalAlign=top;childLayout=stackLayout;horizontal=1;startSize=26;horizontalStack=0;resizeParent=1;resizeLast=0;collapsible=1;marginBottom=0;rounded=0;shadow=0;strokeWidth=1;" parent="WIyWlLk6GJQsqaUBKTNV-1" vertex="1">
          <mxGeometry x="521" y="200" width="400" height="240" as="geometry">
            <mxRectangle x="230" y="140" width="160" height="26" as="alternateBounds" />
          </mxGeometry>
        </mxCell>
        <mxCell id="znhiIEnqB92v2dkdMsuW-55" value="+get_k_n_list(k: int,n: int ,data_list: DataList, filter: BaseFilter)" style="text;align=left;verticalAlign=top;spacingLeft=4;spacingRight=4;overflow=hidden;rotatable=0;points=[[0,0.5],[1,0.5]];portConstraint=eastwest;fontStyle=0" parent="znhiIEnqB92v2dkdMsuW-53" vertex="1">
          <mxGeometry y="26" width="400" height="26" as="geometry" />
        </mxCell>
        <mxCell id="znhiIEnqB92v2dkdMsuW-56" value="+get_by_id(id: int)" style="text;align=left;verticalAlign=top;spacingLeft=4;spacingRight=4;overflow=hidden;rotatable=0;points=[[0,0.5],[1,0.5]];portConstraint=eastwest;fontStyle=0" parent="znhiIEnqB92v2dkdMsuW-53" vertex="1">
          <mxGeometry y="52" width="400" height="26" as="geometry" />
        </mxCell>
        <mxCell id="znhiIEnqB92v2dkdMsuW-57" value="+delete_by_id(id: int)" style="text;align=left;verticalAlign=top;spacingLeft=4;spacingRight=4;overflow=hidden;rotatable=0;points=[[0,0.5],[1,0.5]];portConstraint=eastwest;fontStyle=0" parent="znhiIEnqB92v2dkdMsuW-53" vertex="1">
          <mxGeometry y="78" width="400" height="26" as="geometry" />
        </mxCell>
        <mxCell id="znhiIEnqB92v2dkdMsuW-58" value="+update_by_id(id: int, student: StudentShort)" style="text;align=left;verticalAlign=top;spacingLeft=4;spacingRight=4;overflow=hidden;rotatable=0;points=[[0,0.5],[1,0.5]];portConstraint=eastwest;fontStyle=0" parent="znhiIEnqB92v2dkdMsuW-53" vertex="1">
          <mxGeometry y="104" width="400" height="26" as="geometry" />
        </mxCell>
        <mxCell id="znhiIEnqB92v2dkdMsuW-59" value="+get_student_count(filter: BaseFilter)" style="text;align=left;verticalAlign=top;spacingLeft=4;spacingRight=4;overflow=hidden;rotatable=0;points=[[0,0.5],[1,0.5]];portConstraint=eastwest;fontStyle=0" parent="znhiIEnqB92v2dkdMsuW-53" vertex="1">
          <mxGeometry y="130" width="400" height="26" as="geometry" />
        </mxCell>
        <mxCell id="znhiIEnqB92v2dkdMsuW-60" value="+add(student: StudentShort)" style="text;align=left;verticalAlign=top;spacingLeft=4;spacingRight=4;overflow=hidden;rotatable=0;points=[[0,0.5],[1,0.5]];portConstraint=eastwest;fontStyle=0" parent="znhiIEnqB92v2dkdMsuW-53" vertex="1">
          <mxGeometry y="156" width="400" height="26" as="geometry" />
        </mxCell>
        <mxCell id="znhiIEnqB92v2dkdMsuW-86" style="edgeStyle=orthogonalEdgeStyle;rounded=0;orthogonalLoop=1;jettySize=auto;html=1;exitX=0.5;exitY=0;exitDx=0;exitDy=0;entryX=0.5;entryY=1;entryDx=0;entryDy=0;" parent="WIyWlLk6GJQsqaUBKTNV-1" source="znhiIEnqB92v2dkdMsuW-61" target="znhiIEnqB92v2dkdMsuW-53" edge="1">
          <mxGeometry relative="1" as="geometry" />
        </mxCell>
        <mxCell id="znhiIEnqB92v2dkdMsuW-61" value="storage_fs_adapter" style="swimlane;fontStyle=2;align=center;verticalAlign=top;childLayout=stackLayout;horizontal=1;startSize=26;horizontalStack=0;resizeParent=1;resizeLast=0;collapsible=1;marginBottom=0;rounded=0;shadow=0;strokeWidth=1;" parent="WIyWlLk6GJQsqaUBKTNV-1" vertex="1">
          <mxGeometry x="281" y="520" width="400" height="240" as="geometry">
            <mxRectangle x="230" y="140" width="160" height="26" as="alternateBounds" />
          </mxGeometry>
        </mxCell>
        <mxCell id="znhiIEnqB92v2dkdMsuW-75" value="+initialize(students_list_fs: StudentsListFS)" style="text;align=left;verticalAlign=top;spacingLeft=4;spacingRight=4;overflow=hidden;rotatable=0;points=[[0,0.5],[1,0.5]];portConstraint=eastwest;fontStyle=0" parent="znhiIEnqB92v2dkdMsuW-61" vertex="1">
          <mxGeometry y="26" width="400" height="26" as="geometry" />
        </mxCell>
        <mxCell id="znhiIEnqB92v2dkdMsuW-62" value="+get_k_n_list(k: int,n: int ,data_list: DataList, filter: BaseFilter)" style="text;align=left;verticalAlign=top;spacingLeft=4;spacingRight=4;overflow=hidden;rotatable=0;points=[[0,0.5],[1,0.5]];portConstraint=eastwest;fontStyle=0" parent="znhiIEnqB92v2dkdMsuW-61" vertex="1">
          <mxGeometry y="52" width="400" height="26" as="geometry" />
        </mxCell>
        <mxCell id="znhiIEnqB92v2dkdMsuW-63" value="+get_by_id(id: int)" style="text;align=left;verticalAlign=top;spacingLeft=4;spacingRight=4;overflow=hidden;rotatable=0;points=[[0,0.5],[1,0.5]];portConstraint=eastwest;fontStyle=0" parent="znhiIEnqB92v2dkdMsuW-61" vertex="1">
          <mxGeometry y="78" width="400" height="26" as="geometry" />
        </mxCell>
        <mxCell id="znhiIEnqB92v2dkdMsuW-64" value="+delete_by_id(id: int)" style="text;align=left;verticalAlign=top;spacingLeft=4;spacingRight=4;overflow=hidden;rotatable=0;points=[[0,0.5],[1,0.5]];portConstraint=eastwest;fontStyle=0" parent="znhiIEnqB92v2dkdMsuW-61" vertex="1">
          <mxGeometry y="104" width="400" height="26" as="geometry" />
        </mxCell>
        <mxCell id="znhiIEnqB92v2dkdMsuW-65" value="+update_by_id(id: int, student: StudentShort)" style="text;align=left;verticalAlign=top;spacingLeft=4;spacingRight=4;overflow=hidden;rotatable=0;points=[[0,0.5],[1,0.5]];portConstraint=eastwest;fontStyle=0" parent="znhiIEnqB92v2dkdMsuW-61" vertex="1">
          <mxGeometry y="130" width="400" height="26" as="geometry" />
        </mxCell>
        <mxCell id="znhiIEnqB92v2dkdMsuW-66" value="+get_student_count(filter: BaseFilter)" style="text;align=left;verticalAlign=top;spacingLeft=4;spacingRight=4;overflow=hidden;rotatable=0;points=[[0,0.5],[1,0.5]];portConstraint=eastwest;fontStyle=0" parent="znhiIEnqB92v2dkdMsuW-61" vertex="1">
          <mxGeometry y="156" width="400" height="26" as="geometry" />
        </mxCell>
        <mxCell id="znhiIEnqB92v2dkdMsuW-67" value="+add(student: StudentShort)" style="text;align=left;verticalAlign=top;spacingLeft=4;spacingRight=4;overflow=hidden;rotatable=0;points=[[0,0.5],[1,0.5]];portConstraint=eastwest;fontStyle=0" parent="znhiIEnqB92v2dkdMsuW-61" vertex="1">
          <mxGeometry y="182" width="400" height="18" as="geometry" />
        </mxCell>
        <mxCell id="znhiIEnqB92v2dkdMsuW-87" style="edgeStyle=orthogonalEdgeStyle;rounded=0;orthogonalLoop=1;jettySize=auto;html=1;exitX=0.5;exitY=0;exitDx=0;exitDy=0;entryX=0.5;entryY=1;entryDx=0;entryDy=0;" parent="WIyWlLk6GJQsqaUBKTNV-1" source="znhiIEnqB92v2dkdMsuW-76" target="znhiIEnqB92v2dkdMsuW-53" edge="1">
          <mxGeometry relative="1" as="geometry" />
        </mxCell>
        <mxCell id="bTc6IOV8MmuMx8NYDI5--29" style="edgeStyle=orthogonalEdgeStyle;rounded=0;orthogonalLoop=1;jettySize=auto;html=1;entryX=0.5;entryY=0;entryDx=0;entryDy=0;endArrow=diamond;endFill=0;jumpSize=6;startSize=6;endSize=18;" edge="1" parent="WIyWlLk6GJQsqaUBKTNV-1" source="znhiIEnqB92v2dkdMsuW-76" target="znhiIEnqB92v2dkdMsuW-121">
          <mxGeometry relative="1" as="geometry" />
        </mxCell>
        <mxCell id="znhiIEnqB92v2dkdMsuW-76" value="storage_db_adapter" style="swimlane;fontStyle=2;align=center;verticalAlign=top;childLayout=stackLayout;horizontal=1;startSize=26;horizontalStack=0;resizeParent=1;resizeLast=0;collapsible=1;marginBottom=0;rounded=0;shadow=0;strokeWidth=1;" parent="WIyWlLk6GJQsqaUBKTNV-1" vertex="1">
          <mxGeometry x="761" y="520" width="400" height="240" as="geometry">
            <mxRectangle x="230" y="140" width="160" height="26" as="alternateBounds" />
          </mxGeometry>
        </mxCell>
        <mxCell id="znhiIEnqB92v2dkdMsuW-77" value="+initialize(students_list_db: StudentsListDB)" style="text;align=left;verticalAlign=top;spacingLeft=4;spacingRight=4;overflow=hidden;rotatable=0;points=[[0,0.5],[1,0.5]];portConstraint=eastwest;fontStyle=0" parent="znhiIEnqB92v2dkdMsuW-76" vertex="1">
          <mxGeometry y="26" width="400" height="26" as="geometry" />
        </mxCell>
        <mxCell id="znhiIEnqB92v2dkdMsuW-78" value="+get_k_n_list(k: int,n: int ,data_list: DataList, filter: BaseFilter)" style="text;align=left;verticalAlign=top;spacingLeft=4;spacingRight=4;overflow=hidden;rotatable=0;points=[[0,0.5],[1,0.5]];portConstraint=eastwest;fontStyle=0" parent="znhiIEnqB92v2dkdMsuW-76" vertex="1">
          <mxGeometry y="52" width="400" height="26" as="geometry" />
        </mxCell>
        <mxCell id="znhiIEnqB92v2dkdMsuW-79" value="+get_by_id(id: int)" style="text;align=left;verticalAlign=top;spacingLeft=4;spacingRight=4;overflow=hidden;rotatable=0;points=[[0,0.5],[1,0.5]];portConstraint=eastwest;fontStyle=0" parent="znhiIEnqB92v2dkdMsuW-76" vertex="1">
          <mxGeometry y="78" width="400" height="26" as="geometry" />
        </mxCell>
        <mxCell id="znhiIEnqB92v2dkdMsuW-80" value="+delete_by_id(id: int)" style="text;align=left;verticalAlign=top;spacingLeft=4;spacingRight=4;overflow=hidden;rotatable=0;points=[[0,0.5],[1,0.5]];portConstraint=eastwest;fontStyle=0" parent="znhiIEnqB92v2dkdMsuW-76" vertex="1">
          <mxGeometry y="104" width="400" height="26" as="geometry" />
        </mxCell>
        <mxCell id="znhiIEnqB92v2dkdMsuW-81" value="+update_by_id(id: int, student: StudentShort)" style="text;align=left;verticalAlign=top;spacingLeft=4;spacingRight=4;overflow=hidden;rotatable=0;points=[[0,0.5],[1,0.5]];portConstraint=eastwest;fontStyle=0" parent="znhiIEnqB92v2dkdMsuW-76" vertex="1">
          <mxGeometry y="130" width="400" height="26" as="geometry" />
        </mxCell>
        <mxCell id="znhiIEnqB92v2dkdMsuW-82" value="+get_student_count(filter: BaseFilter)" style="text;align=left;verticalAlign=top;spacingLeft=4;spacingRight=4;overflow=hidden;rotatable=0;points=[[0,0.5],[1,0.5]];portConstraint=eastwest;fontStyle=0" parent="znhiIEnqB92v2dkdMsuW-76" vertex="1">
          <mxGeometry y="156" width="400" height="26" as="geometry" />
        </mxCell>
        <mxCell id="znhiIEnqB92v2dkdMsuW-83" value="+add(student: StudentShort)" style="text;align=left;verticalAlign=top;spacingLeft=4;spacingRight=4;overflow=hidden;rotatable=0;points=[[0,0.5],[1,0.5]];portConstraint=eastwest;fontStyle=0" parent="znhiIEnqB92v2dkdMsuW-76" vertex="1">
          <mxGeometry y="182" width="400" height="28" as="geometry" />
        </mxCell>
        <mxCell id="bTc6IOV8MmuMx8NYDI5--27" style="edgeStyle=orthogonalEdgeStyle;rounded=0;orthogonalLoop=1;jettySize=auto;html=1;entryX=0.5;entryY=1;entryDx=0;entryDy=0;endArrow=none;endFill=0;startArrow=diamond;startFill=0;startSize=18;" edge="1" parent="WIyWlLk6GJQsqaUBKTNV-1" source="znhiIEnqB92v2dkdMsuW-88" target="znhiIEnqB92v2dkdMsuW-61">
          <mxGeometry relative="1" as="geometry" />
        </mxCell>
        <mxCell id="znhiIEnqB92v2dkdMsuW-88" value="student_list_fs" style="swimlane;fontStyle=2;align=center;verticalAlign=top;childLayout=stackLayout;horizontal=1;startSize=26;horizontalStack=0;resizeParent=1;resizeLast=0;collapsible=1;marginBottom=0;rounded=0;shadow=0;strokeWidth=1;" parent="WIyWlLk6GJQsqaUBKTNV-1" vertex="1">
          <mxGeometry x="281" y="840" width="400" height="330" as="geometry">
            <mxRectangle x="230" y="140" width="160" height="26" as="alternateBounds" />
          </mxGeometry>
        </mxCell>
        <mxCell id="znhiIEnqB92v2dkdMsuW-89" value="+initialize(strategy: StorageInterface, data_list: DataListStudentShort)" style="text;align=left;verticalAlign=top;spacingLeft=4;spacingRight=4;overflow=hidden;rotatable=0;points=[[0,0.5],[1,0.5]];portConstraint=eastwest;fontStyle=0" parent="znhiIEnqB92v2dkdMsuW-88" vertex="1">
          <mxGeometry y="26" width="400" height="26" as="geometry" />
        </mxCell>
        <mxCell id="znhiIEnqB92v2dkdMsuW-90" value="+get_k_n_list_in_file(k: int,n: int ,data_list: DataList, filter: BaseFilter" style="text;align=left;verticalAlign=top;spacingLeft=4;spacingRight=4;overflow=hidden;rotatable=0;points=[[0,0.5],[1,0.5]];portConstraint=eastwest;fontStyle=0" parent="znhiIEnqB92v2dkdMsuW-88" vertex="1">
          <mxGeometry y="52" width="400" height="26" as="geometry" />
        </mxCell>
        <mxCell id="znhiIEnqB92v2dkdMsuW-91" value="+get_by_id_in_file(id: int)" style="text;align=left;verticalAlign=top;spacingLeft=4;spacingRight=4;overflow=hidden;rotatable=0;points=[[0,0.5],[1,0.5]];portConstraint=eastwest;fontStyle=0" parent="znhiIEnqB92v2dkdMsuW-88" vertex="1">
          <mxGeometry y="78" width="400" height="26" as="geometry" />
        </mxCell>
        <mxCell id="znhiIEnqB92v2dkdMsuW-92" value="+delete_by_id_in_file(id: int)" style="text;align=left;verticalAlign=top;spacingLeft=4;spacingRight=4;overflow=hidden;rotatable=0;points=[[0,0.5],[1,0.5]];portConstraint=eastwest;fontStyle=0" parent="znhiIEnqB92v2dkdMsuW-88" vertex="1">
          <mxGeometry y="104" width="400" height="26" as="geometry" />
        </mxCell>
        <mxCell id="znhiIEnqB92v2dkdMsuW-93" value="+update_by_id_in_file(id: int, student: StudentShort)" style="text;align=left;verticalAlign=top;spacingLeft=4;spacingRight=4;overflow=hidden;rotatable=0;points=[[0,0.5],[1,0.5]];portConstraint=eastwest;fontStyle=0" parent="znhiIEnqB92v2dkdMsuW-88" vertex="1">
          <mxGeometry y="130" width="400" height="26" as="geometry" />
        </mxCell>
        <mxCell id="znhiIEnqB92v2dkdMsuW-94" value="+count_students_in_file(filter: BaseFilter)" style="text;align=left;verticalAlign=top;spacingLeft=4;spacingRight=4;overflow=hidden;rotatable=0;points=[[0,0.5],[1,0.5]];portConstraint=eastwest;fontStyle=0" parent="znhiIEnqB92v2dkdMsuW-88" vertex="1">
          <mxGeometry y="156" width="400" height="26" as="geometry" />
        </mxCell>
        <mxCell id="znhiIEnqB92v2dkdMsuW-95" value="+add_in_file(student: StudentShort)" style="text;align=left;verticalAlign=top;spacingLeft=4;spacingRight=4;overflow=hidden;rotatable=0;points=[[0,0.5],[1,0.5]];portConstraint=eastwest;fontStyle=0" parent="znhiIEnqB92v2dkdMsuW-88" vertex="1">
          <mxGeometry y="182" width="400" height="26" as="geometry" />
        </mxCell>
        <mxCell id="znhiIEnqB92v2dkdMsuW-105" value="+read_all_in_file" style="text;align=left;verticalAlign=top;spacingLeft=4;spacingRight=4;overflow=hidden;rotatable=0;points=[[0,0.5],[1,0.5]];portConstraint=eastwest;fontStyle=0" parent="znhiIEnqB92v2dkdMsuW-88" vertex="1">
          <mxGeometry y="208" width="400" height="26" as="geometry" />
        </mxCell>
        <mxCell id="znhiIEnqB92v2dkdMsuW-107" value="+read_all_in_file!" style="text;align=left;verticalAlign=top;spacingLeft=4;spacingRight=4;overflow=hidden;rotatable=0;points=[[0,0.5],[1,0.5]];portConstraint=eastwest;fontStyle=0" parent="znhiIEnqB92v2dkdMsuW-88" vertex="1">
          <mxGeometry y="234" width="400" height="26" as="geometry" />
        </mxCell>
        <mxCell id="znhiIEnqB92v2dkdMsuW-108" value="+sort" style="text;align=left;verticalAlign=top;spacingLeft=4;spacingRight=4;overflow=hidden;rotatable=0;points=[[0,0.5],[1,0.5]];portConstraint=eastwest;fontStyle=0" parent="znhiIEnqB92v2dkdMsuW-88" vertex="1">
          <mxGeometry y="260" width="400" height="26" as="geometry" />
        </mxCell>
        <mxCell id="znhiIEnqB92v2dkdMsuW-106" value="+sort!" style="text;align=left;verticalAlign=top;spacingLeft=4;spacingRight=4;overflow=hidden;rotatable=0;points=[[0,0.5],[1,0.5]];portConstraint=eastwest;fontStyle=0" parent="znhiIEnqB92v2dkdMsuW-88" vertex="1">
          <mxGeometry y="286" width="400" height="26" as="geometry" />
        </mxCell>
        <mxCell id="bTc6IOV8MmuMx8NYDI5--34" style="edgeStyle=orthogonalEdgeStyle;rounded=0;orthogonalLoop=1;jettySize=auto;html=1;entryX=0.5;entryY=1;entryDx=0;entryDy=0;endArrow=diamond;endFill=0;startSize=6;endSize=18;" edge="1" parent="WIyWlLk6GJQsqaUBKTNV-1" source="znhiIEnqB92v2dkdMsuW-133" target="znhiIEnqB92v2dkdMsuW-88">
          <mxGeometry relative="1" as="geometry" />
        </mxCell>
        <mxCell id="znhiIEnqB92v2dkdMsuW-133" value="base_file_strategy" style="swimlane;fontStyle=2;align=center;verticalAlign=top;childLayout=stackLayout;horizontal=1;startSize=26;horizontalStack=0;resizeParent=1;resizeLast=0;collapsible=1;marginBottom=0;rounded=0;shadow=0;strokeWidth=1;" parent="WIyWlLk6GJQsqaUBKTNV-1" vertex="1">
          <mxGeometry x="281" y="1240" width="400" height="160" as="geometry">
            <mxRectangle x="230" y="140" width="160" height="26" as="alternateBounds" />
          </mxGeometry>
        </mxCell>
        <mxCell id="znhiIEnqB92v2dkdMsuW-134" value="+initialize(file: str)" style="text;align=left;verticalAlign=top;spacingLeft=4;spacingRight=4;overflow=hidden;rotatable=0;points=[[0,0.5],[1,0.5]];portConstraint=eastwest;fontStyle=0" parent="znhiIEnqB92v2dkdMsuW-133" vertex="1">
          <mxGeometry y="26" width="400" height="26" as="geometry" />
        </mxCell>
        <mxCell id="znhiIEnqB92v2dkdMsuW-135" value="+read" style="text;align=left;verticalAlign=top;spacingLeft=4;spacingRight=4;overflow=hidden;rotatable=0;points=[[0,0.5],[1,0.5]];portConstraint=eastwest;fontStyle=0" parent="znhiIEnqB92v2dkdMsuW-133" vertex="1">
          <mxGeometry y="52" width="400" height="26" as="geometry" />
        </mxCell>
        <mxCell id="znhiIEnqB92v2dkdMsuW-141" value="+write" style="text;align=left;verticalAlign=top;spacingLeft=4;spacingRight=4;overflow=hidden;rotatable=0;points=[[0,0.5],[1,0.5]];portConstraint=eastwest;fontStyle=0" parent="znhiIEnqB92v2dkdMsuW-133" vertex="1">
          <mxGeometry y="78" width="400" height="26" as="geometry" />
        </mxCell>
        <mxCell id="znhiIEnqB92v2dkdMsuW-142" value="#from_file(data:str)" style="text;align=left;verticalAlign=top;spacingLeft=4;spacingRight=4;overflow=hidden;rotatable=0;points=[[0,0.5],[1,0.5]];portConstraint=eastwest;fontStyle=0" parent="znhiIEnqB92v2dkdMsuW-133" vertex="1">
          <mxGeometry y="104" width="400" height="26" as="geometry" />
        </mxCell>
        <mxCell id="znhiIEnqB92v2dkdMsuW-136" value="#to_file(elements : StudentShort array)" style="text;align=left;verticalAlign=top;spacingLeft=4;spacingRight=4;overflow=hidden;rotatable=0;points=[[0,0.5],[1,0.5]];portConstraint=eastwest;fontStyle=0" parent="znhiIEnqB92v2dkdMsuW-133" vertex="1">
          <mxGeometry y="130" width="400" height="26" as="geometry" />
        </mxCell>
        <mxCell id="znhiIEnqB92v2dkdMsuW-164" style="edgeStyle=orthogonalEdgeStyle;rounded=0;orthogonalLoop=1;jettySize=auto;html=1;entryX=0.5;entryY=1;entryDx=0;entryDy=0;exitX=0.5;exitY=0;exitDx=0;exitDy=0;" parent="WIyWlLk6GJQsqaUBKTNV-1" source="znhiIEnqB92v2dkdMsuW-143" target="znhiIEnqB92v2dkdMsuW-133" edge="1">
          <mxGeometry relative="1" as="geometry" />
        </mxCell>
        <mxCell id="znhiIEnqB92v2dkdMsuW-143" value="json_file_strategy" style="swimlane;fontStyle=2;align=center;verticalAlign=top;childLayout=stackLayout;horizontal=1;startSize=26;horizontalStack=0;resizeParent=1;resizeLast=0;collapsible=1;marginBottom=0;rounded=0;shadow=0;strokeWidth=1;" parent="WIyWlLk6GJQsqaUBKTNV-1" vertex="1">
          <mxGeometry x="-159" y="1521" width="400" height="79" as="geometry">
            <mxRectangle x="230" y="140" width="160" height="26" as="alternateBounds" />
          </mxGeometry>
        </mxCell>
        <mxCell id="znhiIEnqB92v2dkdMsuW-147" value="-from_file(json:str)" style="text;align=left;verticalAlign=top;spacingLeft=4;spacingRight=4;overflow=hidden;rotatable=0;points=[[0,0.5],[1,0.5]];portConstraint=eastwest;fontStyle=0" parent="znhiIEnqB92v2dkdMsuW-143" vertex="1">
          <mxGeometry y="26" width="400" height="26" as="geometry" />
        </mxCell>
        <mxCell id="znhiIEnqB92v2dkdMsuW-148" value="-to_file(elements : StudentShort array)" style="text;align=left;verticalAlign=top;spacingLeft=4;spacingRight=4;overflow=hidden;rotatable=0;points=[[0,0.5],[1,0.5]];portConstraint=eastwest;fontStyle=0" parent="znhiIEnqB92v2dkdMsuW-143" vertex="1">
          <mxGeometry y="52" width="400" height="26" as="geometry" />
        </mxCell>
        <mxCell id="znhiIEnqB92v2dkdMsuW-162" style="edgeStyle=orthogonalEdgeStyle;rounded=0;orthogonalLoop=1;jettySize=auto;html=1;entryX=0.5;entryY=1;entryDx=0;entryDy=0;" parent="WIyWlLk6GJQsqaUBKTNV-1" source="znhiIEnqB92v2dkdMsuW-149" target="znhiIEnqB92v2dkdMsuW-133" edge="1">
          <mxGeometry relative="1" as="geometry" />
        </mxCell>
        <mxCell id="znhiIEnqB92v2dkdMsuW-149" value="txt_file_strategy" style="swimlane;fontStyle=2;align=center;verticalAlign=top;childLayout=stackLayout;horizontal=1;startSize=26;horizontalStack=0;resizeParent=1;resizeLast=0;collapsible=1;marginBottom=0;rounded=0;shadow=0;strokeWidth=1;" parent="WIyWlLk6GJQsqaUBKTNV-1" vertex="1">
          <mxGeometry x="281" y="1518" width="400" height="82" as="geometry">
            <mxRectangle x="230" y="140" width="160" height="26" as="alternateBounds" />
          </mxGeometry>
        </mxCell>
        <mxCell id="znhiIEnqB92v2dkdMsuW-153" value="-from_file(str: string)" style="text;align=left;verticalAlign=top;spacingLeft=4;spacingRight=4;overflow=hidden;rotatable=0;points=[[0,0.5],[1,0.5]];portConstraint=eastwest;fontStyle=0" parent="znhiIEnqB92v2dkdMsuW-149" vertex="1">
          <mxGeometry y="26" width="400" height="26" as="geometry" />
        </mxCell>
        <mxCell id="znhiIEnqB92v2dkdMsuW-154" value="-to_file(elements : StudentShort array)" style="text;align=left;verticalAlign=top;spacingLeft=4;spacingRight=4;overflow=hidden;rotatable=0;points=[[0,0.5],[1,0.5]];portConstraint=eastwest;fontStyle=0" parent="znhiIEnqB92v2dkdMsuW-149" vertex="1">
          <mxGeometry y="52" width="400" height="26" as="geometry" />
        </mxCell>
        <mxCell id="znhiIEnqB92v2dkdMsuW-165" style="edgeStyle=orthogonalEdgeStyle;rounded=0;orthogonalLoop=1;jettySize=auto;html=1;entryX=0.5;entryY=1;entryDx=0;entryDy=0;exitX=0.5;exitY=0;exitDx=0;exitDy=0;" parent="WIyWlLk6GJQsqaUBKTNV-1" source="znhiIEnqB92v2dkdMsuW-155" target="znhiIEnqB92v2dkdMsuW-133" edge="1">
          <mxGeometry relative="1" as="geometry">
            <Array as="points">
              <mxPoint x="921" y="1460" />
              <mxPoint x="481" y="1460" />
            </Array>
          </mxGeometry>
        </mxCell>
        <mxCell id="znhiIEnqB92v2dkdMsuW-155" value="yaml_file_strategy" style="swimlane;fontStyle=2;align=center;verticalAlign=top;childLayout=stackLayout;horizontal=1;startSize=26;horizontalStack=0;resizeParent=1;resizeLast=0;collapsible=1;marginBottom=0;rounded=0;shadow=0;strokeWidth=1;" parent="WIyWlLk6GJQsqaUBKTNV-1" vertex="1">
          <mxGeometry x="721" y="1518" width="400" height="82" as="geometry">
            <mxRectangle x="230" y="140" width="160" height="26" as="alternateBounds" />
          </mxGeometry>
        </mxCell>
        <mxCell id="znhiIEnqB92v2dkdMsuW-159" value="-from_file(yaml:str)" style="text;align=left;verticalAlign=top;spacingLeft=4;spacingRight=4;overflow=hidden;rotatable=0;points=[[0,0.5],[1,0.5]];portConstraint=eastwest;fontStyle=0" parent="znhiIEnqB92v2dkdMsuW-155" vertex="1">
          <mxGeometry y="26" width="400" height="26" as="geometry" />
        </mxCell>
        <mxCell id="znhiIEnqB92v2dkdMsuW-160" value="-to_file(elements : StudentShort array)" style="text;align=left;verticalAlign=top;spacingLeft=4;spacingRight=4;overflow=hidden;rotatable=0;points=[[0,0.5],[1,0.5]];portConstraint=eastwest;fontStyle=0" parent="znhiIEnqB92v2dkdMsuW-155" vertex="1">
          <mxGeometry y="52" width="400" height="26" as="geometry" />
        </mxCell>
        <mxCell id="znhiIEnqB92v2dkdMsuW-166" value="base_filter" style="swimlane;fontStyle=2;align=center;verticalAlign=top;childLayout=stackLayout;horizontal=1;startSize=26;horizontalStack=0;resizeParent=1;resizeLast=0;collapsible=1;marginBottom=0;rounded=0;shadow=0;strokeWidth=1;" parent="WIyWlLk6GJQsqaUBKTNV-1" vertex="1">
          <mxGeometry x="-359" y="600" width="360" height="80" as="geometry">
            <mxRectangle x="230" y="140" width="160" height="26" as="alternateBounds" />
          </mxGeometry>
        </mxCell>
        <mxCell id="znhiIEnqB92v2dkdMsuW-168" value="#apply(data: array)" style="text;align=left;verticalAlign=top;spacingLeft=4;spacingRight=4;overflow=hidden;rotatable=0;points=[[0,0.5],[1,0.5]];portConstraint=eastwest;fontStyle=0" parent="znhiIEnqB92v2dkdMsuW-166" vertex="1">
          <mxGeometry y="26" width="360" height="26" as="geometry" />
        </mxCell>
        <mxCell id="znhiIEnqB92v2dkdMsuW-193" value="#apply_db" style="text;align=left;verticalAlign=top;spacingLeft=4;spacingRight=4;overflow=hidden;rotatable=0;points=[[0,0.5],[1,0.5]];portConstraint=eastwest;fontStyle=0" parent="znhiIEnqB92v2dkdMsuW-166" vertex="1">
          <mxGeometry y="52" width="360" height="26" as="geometry" />
        </mxCell>
        <mxCell id="znhiIEnqB92v2dkdMsuW-172" style="edgeStyle=orthogonalEdgeStyle;rounded=0;orthogonalLoop=1;jettySize=auto;html=1;entryX=0.5;entryY=1;entryDx=0;entryDy=0;exitX=0.5;exitY=0;exitDx=0;exitDy=0;" parent="WIyWlLk6GJQsqaUBKTNV-1" source="znhiIEnqB92v2dkdMsuW-173" target="znhiIEnqB92v2dkdMsuW-166" edge="1">
          <mxGeometry relative="1" as="geometry" />
        </mxCell>
        <mxCell id="znhiIEnqB92v2dkdMsuW-173" value="filter_decorator" style="swimlane;fontStyle=2;align=center;verticalAlign=top;childLayout=stackLayout;horizontal=1;startSize=26;horizontalStack=0;resizeParent=1;resizeLast=0;collapsible=1;marginBottom=0;rounded=0;shadow=0;strokeWidth=1;" parent="WIyWlLk6GJQsqaUBKTNV-1" vertex="1">
          <mxGeometry x="-559" y="760" width="360" height="120" as="geometry">
            <mxRectangle x="230" y="140" width="160" height="26" as="alternateBounds" />
          </mxGeometry>
        </mxCell>
        <mxCell id="znhiIEnqB92v2dkdMsuW-174" value="+initialize(base_filter: BaseFilter, additional_filter: BaseFilter)" style="text;align=left;verticalAlign=top;spacingLeft=4;spacingRight=4;overflow=hidden;rotatable=0;points=[[0,0.5],[1,0.5]];portConstraint=eastwest;fontStyle=0" parent="znhiIEnqB92v2dkdMsuW-173" vertex="1">
          <mxGeometry y="26" width="360" height="26" as="geometry" />
        </mxCell>
        <mxCell id="znhiIEnqB92v2dkdMsuW-175" value="+apply(data: array)" style="text;align=left;verticalAlign=top;spacingLeft=4;spacingRight=4;overflow=hidden;rotatable=0;points=[[0,0.5],[1,0.5]];portConstraint=eastwest;fontStyle=0" parent="znhiIEnqB92v2dkdMsuW-173" vertex="1">
          <mxGeometry y="52" width="360" height="26" as="geometry" />
        </mxCell>
        <mxCell id="znhiIEnqB92v2dkdMsuW-176" value="+apply_db" style="text;align=left;verticalAlign=top;spacingLeft=4;spacingRight=4;overflow=hidden;rotatable=0;points=[[0,0.5],[1,0.5]];portConstraint=eastwest;fontStyle=0" parent="znhiIEnqB92v2dkdMsuW-173" vertex="1">
          <mxGeometry y="78" width="360" height="26" as="geometry" />
        </mxCell>
        <mxCell id="znhiIEnqB92v2dkdMsuW-179" style="edgeStyle=orthogonalEdgeStyle;rounded=0;orthogonalLoop=1;jettySize=auto;html=1;entryX=0.5;entryY=1;entryDx=0;entryDy=0;" parent="WIyWlLk6GJQsqaUBKTNV-1" source="znhiIEnqB92v2dkdMsuW-180" target="znhiIEnqB92v2dkdMsuW-166" edge="1">
          <mxGeometry relative="1" as="geometry" />
        </mxCell>
        <mxCell id="znhiIEnqB92v2dkdMsuW-180" value="field_presence_filter" style="swimlane;fontStyle=2;align=center;verticalAlign=top;childLayout=stackLayout;horizontal=1;startSize=26;horizontalStack=0;resizeParent=1;resizeLast=0;collapsible=1;marginBottom=0;rounded=0;shadow=0;strokeWidth=1;" parent="WIyWlLk6GJQsqaUBKTNV-1" vertex="1">
          <mxGeometry x="-159" y="760" width="360" height="120" as="geometry">
            <mxRectangle x="230" y="140" width="160" height="26" as="alternateBounds" />
          </mxGeometry>
        </mxCell>
        <mxCell id="znhiIEnqB92v2dkdMsuW-194" value="+initialize(field: str)" style="text;align=left;verticalAlign=top;spacingLeft=4;spacingRight=4;overflow=hidden;rotatable=0;points=[[0,0.5],[1,0.5]];portConstraint=eastwest;fontStyle=0" parent="znhiIEnqB92v2dkdMsuW-180" vertex="1">
          <mxGeometry y="26" width="360" height="26" as="geometry" />
        </mxCell>
        <mxCell id="znhiIEnqB92v2dkdMsuW-196" value="+apply_db" style="text;align=left;verticalAlign=top;spacingLeft=4;spacingRight=4;overflow=hidden;rotatable=0;points=[[0,0.5],[1,0.5]];portConstraint=eastwest;fontStyle=0" parent="znhiIEnqB92v2dkdMsuW-180" vertex="1">
          <mxGeometry y="52" width="360" height="68" as="geometry" />
        </mxCell>
        <mxCell id="znhiIEnqB92v2dkdMsuW-204" style="edgeStyle=orthogonalEdgeStyle;rounded=0;orthogonalLoop=1;jettySize=auto;html=1;entryX=0.5;entryY=1;entryDx=0;entryDy=0;" parent="WIyWlLk6GJQsqaUBKTNV-1" source="znhiIEnqB92v2dkdMsuW-187" target="znhiIEnqB92v2dkdMsuW-180" edge="1">
          <mxGeometry relative="1" as="geometry" />
        </mxCell>
        <mxCell id="znhiIEnqB92v2dkdMsuW-187" value="has_git_filter" style="swimlane;fontStyle=2;align=center;verticalAlign=top;childLayout=stackLayout;horizontal=1;startSize=26;horizontalStack=0;resizeParent=1;resizeLast=0;collapsible=1;marginBottom=0;rounded=0;shadow=0;strokeWidth=1;" parent="WIyWlLk6GJQsqaUBKTNV-1" vertex="1">
          <mxGeometry x="-159" y="960" width="160" height="80" as="geometry">
            <mxRectangle x="230" y="140" width="160" height="26" as="alternateBounds" />
          </mxGeometry>
        </mxCell>
        <mxCell id="znhiIEnqB92v2dkdMsuW-197" value="+initialize" style="text;align=left;verticalAlign=top;spacingLeft=4;spacingRight=4;overflow=hidden;rotatable=0;points=[[0,0.5],[1,0.5]];portConstraint=eastwest;fontStyle=0" parent="znhiIEnqB92v2dkdMsuW-187" vertex="1">
          <mxGeometry y="26" width="160" height="26" as="geometry" />
        </mxCell>
        <mxCell id="znhiIEnqB92v2dkdMsuW-198" value="+apply(data: array)" style="text;align=left;verticalAlign=top;spacingLeft=4;spacingRight=4;overflow=hidden;rotatable=0;points=[[0,0.5],[1,0.5]];portConstraint=eastwest;fontStyle=0" parent="znhiIEnqB92v2dkdMsuW-187" vertex="1">
          <mxGeometry y="52" width="160" height="26" as="geometry" />
        </mxCell>
        <mxCell id="znhiIEnqB92v2dkdMsuW-205" style="edgeStyle=orthogonalEdgeStyle;rounded=0;orthogonalLoop=1;jettySize=auto;html=1;entryX=0.5;entryY=1;entryDx=0;entryDy=0;" parent="WIyWlLk6GJQsqaUBKTNV-1" source="znhiIEnqB92v2dkdMsuW-200" target="znhiIEnqB92v2dkdMsuW-180" edge="1">
          <mxGeometry relative="1" as="geometry" />
        </mxCell>
        <mxCell id="znhiIEnqB92v2dkdMsuW-200" value="has_contact_filter" style="swimlane;fontStyle=2;align=center;verticalAlign=top;childLayout=stackLayout;horizontal=1;startSize=26;horizontalStack=0;resizeParent=1;resizeLast=0;collapsible=1;marginBottom=0;rounded=0;shadow=0;strokeWidth=1;" parent="WIyWlLk6GJQsqaUBKTNV-1" vertex="1">
          <mxGeometry x="41" y="960" width="160" height="80" as="geometry">
            <mxRectangle x="230" y="140" width="160" height="26" as="alternateBounds" />
          </mxGeometry>
        </mxCell>
        <mxCell id="znhiIEnqB92v2dkdMsuW-201" value="+initialize" style="text;align=left;verticalAlign=top;spacingLeft=4;spacingRight=4;overflow=hidden;rotatable=0;points=[[0,0.5],[1,0.5]];portConstraint=eastwest;fontStyle=0" parent="znhiIEnqB92v2dkdMsuW-200" vertex="1">
          <mxGeometry y="26" width="160" height="26" as="geometry" />
        </mxCell>
        <mxCell id="znhiIEnqB92v2dkdMsuW-202" value="+apply(data: array)" style="text;align=left;verticalAlign=top;spacingLeft=4;spacingRight=4;overflow=hidden;rotatable=0;points=[[0,0.5],[1,0.5]];portConstraint=eastwest;fontStyle=0" parent="znhiIEnqB92v2dkdMsuW-200" vertex="1">
          <mxGeometry y="52" width="160" height="26" as="geometry" />
        </mxCell>
        <mxCell id="znhiIEnqB92v2dkdMsuW-206" value="DB_connection" style="swimlane;fontStyle=2;align=center;verticalAlign=top;childLayout=stackLayout;horizontal=1;startSize=26;horizontalStack=0;resizeParent=1;resizeLast=0;collapsible=1;marginBottom=0;rounded=0;shadow=0;strokeWidth=1;" parent="WIyWlLk6GJQsqaUBKTNV-1" vertex="1">
          <mxGeometry x="761" y="1240" width="400" height="80" as="geometry">
            <mxRectangle x="230" y="140" width="160" height="26" as="alternateBounds" />
          </mxGeometry>
        </mxCell>
        <mxCell id="znhiIEnqB92v2dkdMsuW-207" value="-initialize" style="text;align=left;verticalAlign=top;spacingLeft=4;spacingRight=4;overflow=hidden;rotatable=0;points=[[0,0.5],[1,0.5]];portConstraint=eastwest;fontStyle=0" parent="znhiIEnqB92v2dkdMsuW-206" vertex="1">
          <mxGeometry y="26" width="400" height="26" as="geometry" />
        </mxCell>
        <mxCell id="znhiIEnqB92v2dkdMsuW-214" value="+instance" style="text;align=left;verticalAlign=top;spacingLeft=4;spacingRight=4;overflow=hidden;rotatable=0;points=[[0,0.5],[1,0.5]];portConstraint=eastwest;fontStyle=4" parent="znhiIEnqB92v2dkdMsuW-206" vertex="1">
          <mxGeometry y="52" width="400" height="26" as="geometry" />
        </mxCell>
        <mxCell id="zkfFHV4jXpPFQw0GAbJ--17" value="StudentShort" style="swimlane;fontStyle=0;align=center;verticalAlign=top;childLayout=stackLayout;horizontal=1;startSize=26;horizontalStack=0;resizeParent=1;resizeLast=0;collapsible=1;marginBottom=0;rounded=0;shadow=0;strokeWidth=1;" parent="WIyWlLk6GJQsqaUBKTNV-1" vertex="1">
          <mxGeometry x="41" y="-480" width="400" height="400" as="geometry">
            <mxRectangle x="560" y="280" width="160" height="26" as="alternateBounds" />
          </mxGeometry>
        </mxCell>
        <mxCell id="zkfFHV4jXpPFQw0GAbJ--18" value="surname_and_initials: string" style="text;align=left;verticalAlign=top;spacingLeft=4;spacingRight=4;overflow=hidden;rotatable=0;points=[[0,0.5],[1,0.5]];portConstraint=eastwest;" parent="zkfFHV4jXpPFQw0GAbJ--17" vertex="1">
          <mxGeometry y="26" width="400" height="26" as="geometry" />
        </mxCell>
        <mxCell id="rkT2CLuDJCGZjRkK9kf4-47" value="contact: Hash" style="text;align=left;verticalAlign=top;spacingLeft=4;spacingRight=4;overflow=hidden;rotatable=0;points=[[0,0.5],[1,0.5]];portConstraint=eastwest;" parent="zkfFHV4jXpPFQw0GAbJ--17" vertex="1">
          <mxGeometry y="52" width="400" height="26" as="geometry" />
        </mxCell>
        <mxCell id="zkfFHV4jXpPFQw0GAbJ--23" value="" style="line;html=1;strokeWidth=1;align=left;verticalAlign=middle;spacingTop=-1;spacingLeft=3;spacingRight=3;rotatable=0;labelPosition=right;points=[];portConstraint=eastwest;" parent="zkfFHV4jXpPFQw0GAbJ--17" vertex="1">
          <mxGeometry y="78" width="400" height="8" as="geometry" />
        </mxCell>
        <mxCell id="oliquAKSLZ9o_IgNJF3V-0" value="-id=(value: str): set" style="text;align=left;verticalAlign=top;spacingLeft=4;spacingRight=4;overflow=hidden;rotatable=0;points=[[0,0.5],[1,0.5]];portConstraint=eastwest;" parent="zkfFHV4jXpPFQw0GAbJ--17" vertex="1">
          <mxGeometry y="86" width="400" height="24" as="geometry" />
        </mxCell>
        <mxCell id="oliquAKSLZ9o_IgNJF3V-1" value="-git=(value: str): set" style="text;align=left;verticalAlign=top;spacingLeft=4;spacingRight=4;overflow=hidden;rotatable=0;points=[[0,0.5],[1,0.5]];portConstraint=eastwest;" parent="zkfFHV4jXpPFQw0GAbJ--17" vertex="1">
          <mxGeometry y="110" width="400" height="24" as="geometry" />
        </mxCell>
        <mxCell id="rkT2CLuDJCGZjRkK9kf4-49" value="-id: get" style="text;align=left;verticalAlign=top;spacingLeft=4;spacingRight=4;overflow=hidden;rotatable=0;points=[[0,0.5],[1,0.5]];portConstraint=eastwest;" parent="zkfFHV4jXpPFQw0GAbJ--17" vertex="1">
          <mxGeometry y="134" width="400" height="26" as="geometry" />
        </mxCell>
        <mxCell id="rkT2CLuDJCGZjRkK9kf4-50" value="-git: get" style="text;align=left;verticalAlign=top;spacingLeft=4;spacingRight=4;overflow=hidden;rotatable=0;points=[[0,0.5],[1,0.5]];portConstraint=eastwest;" parent="zkfFHV4jXpPFQw0GAbJ--17" vertex="1">
          <mxGeometry y="160" width="400" height="26" as="geometry" />
        </mxCell>
        <mxCell id="wEu3qzO1atXNmpKXPWO0-1" value="-contact: get" style="text;align=left;verticalAlign=top;spacingLeft=4;spacingRight=4;overflow=hidden;rotatable=0;points=[[0,0.5],[1,0.5]];portConstraint=eastwest;" parent="zkfFHV4jXpPFQw0GAbJ--17" vertex="1">
          <mxGeometry y="186" width="400" height="24" as="geometry" />
        </mxCell>
        <mxCell id="zkfFHV4jXpPFQw0GAbJ--24" value="-initialize(surname_and_initials: str, id: str, git: str, contact: hash)" style="text;align=left;verticalAlign=top;spacingLeft=4;spacingRight=4;overflow=hidden;rotatable=0;points=[[0,0.5],[1,0.5]];portConstraint=eastwest;" parent="zkfFHV4jXpPFQw0GAbJ--17" vertex="1">
          <mxGeometry y="210" width="400" height="26" as="geometry" />
        </mxCell>
        <mxCell id="zkfFHV4jXpPFQw0GAbJ--25" value="+from_info(id: str, info: str)" style="text;align=left;verticalAlign=top;spacingLeft=4;spacingRight=4;overflow=hidden;rotatable=0;points=[[0,0.5],[1,0.5]];portConstraint=eastwest;" parent="zkfFHV4jXpPFQw0GAbJ--17" vertex="1">
          <mxGeometry y="236" width="400" height="26" as="geometry" />
        </mxCell>
        <mxCell id="hA9nvbCW1QsnM-zQuUA5-35" value="+from_student(student: Student)" style="text;align=left;verticalAlign=top;spacingLeft=4;spacingRight=4;overflow=hidden;rotatable=0;points=[[0,0.5],[1,0.5]];portConstraint=eastwest;" parent="zkfFHV4jXpPFQw0GAbJ--17" vertex="1">
          <mxGeometry y="262" width="400" height="28" as="geometry" />
        </mxCell>
        <mxCell id="rkT2CLuDJCGZjRkK9kf4-28" value="+to_hash" style="text;align=left;verticalAlign=top;spacingLeft=4;spacingRight=4;overflow=hidden;rotatable=0;points=[[0,0.5],[1,0.5]];portConstraint=eastwest;" parent="zkfFHV4jXpPFQw0GAbJ--17" vertex="1">
          <mxGeometry y="290" width="400" height="26" as="geometry" />
        </mxCell>
        <mxCell id="rkT2CLuDJCGZjRkK9kf4-29" value="+get_info" style="text;align=left;verticalAlign=top;spacingLeft=4;spacingRight=4;overflow=hidden;rotatable=0;points=[[0,0.5],[1,0.5]];portConstraint=eastwest;" parent="zkfFHV4jXpPFQw0GAbJ--17" vertex="1">
          <mxGeometry y="316" width="400" height="26" as="geometry" />
        </mxCell>
        <mxCell id="rkT2CLuDJCGZjRkK9kf4-30" value="+to_s" style="text;align=left;verticalAlign=top;spacingLeft=4;spacingRight=4;overflow=hidden;rotatable=0;points=[[0,0.5],[1,0.5]];portConstraint=eastwest;" parent="zkfFHV4jXpPFQw0GAbJ--17" vertex="1">
          <mxGeometry y="342" width="400" height="22" as="geometry" />
        </mxCell>
        <mxCell id="bTc6IOV8MmuMx8NYDI5--28" style="edgeStyle=orthogonalEdgeStyle;rounded=0;orthogonalLoop=1;jettySize=auto;html=1;entryX=0.5;entryY=0;entryDx=0;entryDy=0;dashed=1;endArrow=open;endFill=0;" edge="1" parent="WIyWlLk6GJQsqaUBKTNV-1" source="znhiIEnqB92v2dkdMsuW-121" target="znhiIEnqB92v2dkdMsuW-206">
          <mxGeometry relative="1" as="geometry" />
        </mxCell>
        <mxCell id="bTc6IOV8MmuMx8NYDI5--33" value="Use" style="edgeLabel;html=1;align=center;verticalAlign=middle;resizable=0;points=[];" vertex="1" connectable="0" parent="bTc6IOV8MmuMx8NYDI5--28">
          <mxGeometry x="-0.0993" y="2" relative="1" as="geometry">
            <mxPoint as="offset" />
          </mxGeometry>
        </mxCell>
        <mxCell id="znhiIEnqB92v2dkdMsuW-121" value="student_list_db" style="swimlane;fontStyle=2;align=center;verticalAlign=top;childLayout=stackLayout;horizontal=1;startSize=26;horizontalStack=0;resizeParent=1;resizeLast=0;collapsible=1;marginBottom=0;rounded=0;shadow=0;strokeWidth=1;" parent="WIyWlLk6GJQsqaUBKTNV-1" vertex="1">
          <mxGeometry x="761" y="840" width="400" height="330" as="geometry">
            <mxRectangle x="230" y="140" width="160" height="26" as="alternateBounds" />
          </mxGeometry>
        </mxCell>
        <mxCell id="znhiIEnqB92v2dkdMsuW-122" value="+initialize" style="text;align=left;verticalAlign=top;spacingLeft=4;spacingRight=4;overflow=hidden;rotatable=0;points=[[0,0.5],[1,0.5]];portConstraint=eastwest;fontStyle=0" parent="znhiIEnqB92v2dkdMsuW-121" vertex="1">
          <mxGeometry y="26" width="400" height="26" as="geometry" />
        </mxCell>
        <mxCell id="znhiIEnqB92v2dkdMsuW-123" value="+get_k_n_list_in_db(k: int,n: int ,data_list: DataList, filter: BaseFilter)" style="text;align=left;verticalAlign=top;spacingLeft=4;spacingRight=4;overflow=hidden;rotatable=0;points=[[0,0.5],[1,0.5]];portConstraint=eastwest;fontStyle=0" parent="znhiIEnqB92v2dkdMsuW-121" vertex="1">
          <mxGeometry y="52" width="400" height="26" as="geometry" />
        </mxCell>
        <mxCell id="znhiIEnqB92v2dkdMsuW-124" value="+get_by_id_in_db(id: int)" style="text;align=left;verticalAlign=top;spacingLeft=4;spacingRight=4;overflow=hidden;rotatable=0;points=[[0,0.5],[1,0.5]];portConstraint=eastwest;fontStyle=0" parent="znhiIEnqB92v2dkdMsuW-121" vertex="1">
          <mxGeometry y="78" width="400" height="26" as="geometry" />
        </mxCell>
        <mxCell id="znhiIEnqB92v2dkdMsuW-125" value="+delete_by_id_in_db(id: int)" style="text;align=left;verticalAlign=top;spacingLeft=4;spacingRight=4;overflow=hidden;rotatable=0;points=[[0,0.5],[1,0.5]];portConstraint=eastwest;fontStyle=0" parent="znhiIEnqB92v2dkdMsuW-121" vertex="1">
          <mxGeometry y="104" width="400" height="26" as="geometry" />
        </mxCell>
        <mxCell id="znhiIEnqB92v2dkdMsuW-126" value="+update_by_id_in_db(id: int, student: StudentShort)" style="text;align=left;verticalAlign=top;spacingLeft=4;spacingRight=4;overflow=hidden;rotatable=0;points=[[0,0.5],[1,0.5]];portConstraint=eastwest;fontStyle=0" parent="znhiIEnqB92v2dkdMsuW-121" vertex="1">
          <mxGeometry y="130" width="400" height="26" as="geometry" />
        </mxCell>
        <mxCell id="znhiIEnqB92v2dkdMsuW-127" value="+count_students_in_db(filter: BaseFilter)" style="text;align=left;verticalAlign=top;spacingLeft=4;spacingRight=4;overflow=hidden;rotatable=0;points=[[0,0.5],[1,0.5]];portConstraint=eastwest;fontStyle=0" parent="znhiIEnqB92v2dkdMsuW-121" vertex="1">
          <mxGeometry y="156" width="400" height="26" as="geometry" />
        </mxCell>
        <mxCell id="znhiIEnqB92v2dkdMsuW-128" value="+add_in_db(student: StudentShort)" style="text;align=left;verticalAlign=top;spacingLeft=4;spacingRight=4;overflow=hidden;rotatable=0;points=[[0,0.5],[1,0.5]];portConstraint=eastwest;fontStyle=0" parent="znhiIEnqB92v2dkdMsuW-121" vertex="1">
          <mxGeometry y="182" width="400" height="26" as="geometry" />
        </mxCell>
        <mxCell id="bTc6IOV8MmuMx8NYDI5--21" style="edgeStyle=orthogonalEdgeStyle;rounded=0;orthogonalLoop=1;jettySize=auto;html=1;entryX=0;entryY=0.5;entryDx=0;entryDy=0;dashed=1;endArrow=block;endFill=0;" edge="1" parent="WIyWlLk6GJQsqaUBKTNV-1" source="znhiIEnqB92v2dkdMsuW-21" target="znhiIEnqB92v2dkdMsuW-13">
          <mxGeometry relative="1" as="geometry">
            <mxPoint x="1081.5" y="79" as="targetPoint" />
          </mxGeometry>
        </mxCell>
        <mxCell id="bTc6IOV8MmuMx8NYDI5--25" value="Use" style="edgeLabel;html=1;align=center;verticalAlign=middle;resizable=0;points=[];" vertex="1" connectable="0" parent="bTc6IOV8MmuMx8NYDI5--21">
          <mxGeometry x="0.0206" y="-1" relative="1" as="geometry">
            <mxPoint as="offset" />
          </mxGeometry>
        </mxCell>
        <mxCell id="bTc6IOV8MmuMx8NYDI5--23" style="edgeStyle=orthogonalEdgeStyle;rounded=0;orthogonalLoop=1;jettySize=auto;html=1;entryX=0.5;entryY=0;entryDx=0;entryDy=0;dashed=1;endArrow=open;endFill=0;" edge="1" parent="WIyWlLk6GJQsqaUBKTNV-1" source="znhiIEnqB92v2dkdMsuW-7" target="znhiIEnqB92v2dkdMsuW-0">
          <mxGeometry relative="1" as="geometry">
            <mxPoint x="1241.000000000001" y="40" as="targetPoint" />
          </mxGeometry>
        </mxCell>
        <mxCell id="bTc6IOV8MmuMx8NYDI5--24" value="Use" style="edgeLabel;html=1;align=center;verticalAlign=middle;resizable=0;points=[];" vertex="1" connectable="0" parent="bTc6IOV8MmuMx8NYDI5--23">
          <mxGeometry x="0.3639" y="1" relative="1" as="geometry">
            <mxPoint as="offset" />
          </mxGeometry>
        </mxCell>
        <mxCell id="bTc6IOV8MmuMx8NYDI5--30" style="edgeStyle=orthogonalEdgeStyle;rounded=0;orthogonalLoop=1;jettySize=auto;html=1;exitX=1;exitY=0.5;exitDx=0;exitDy=0;entryX=0;entryY=0.5;entryDx=0;entryDy=0;dashed=1;endArrow=block;endFill=0;" edge="1" parent="WIyWlLk6GJQsqaUBKTNV-1" source="znhiIEnqB92v2dkdMsuW-168" target="znhiIEnqB92v2dkdMsuW-64">
          <mxGeometry relative="1" as="geometry">
            <Array as="points">
              <mxPoint x="1" y="637" />
            </Array>
          </mxGeometry>
        </mxCell>
        <mxCell id="bTc6IOV8MmuMx8NYDI5--36" value="Use" style="edgeLabel;html=1;align=center;verticalAlign=middle;resizable=0;points=[];" vertex="1" connectable="0" parent="bTc6IOV8MmuMx8NYDI5--30">
          <mxGeometry x="0.0024" y="3" relative="1" as="geometry">
            <mxPoint as="offset" />
          </mxGeometry>
        </mxCell>
      </root>
    </mxGraphModel>
  </diagram>
</mxfile>
